<?xml version="1.0" encoding="utf-8"?>
<!-- Generator: Adobe Illustrator 27.9.0, SVG Export Plug-In . SVG Version: 6.00 Build 0)  -->
<svg version="1.1" id="레이어_1" xmlns="http://www.w3.org/2000/svg" xmlns:xlink="http://www.w3.org/1999/xlink" x="0px"
	 y="0px" viewBox="0 0 595 843" style="enable-background:new 0 0 595 843;" xml:space="preserve">
<style type="text/css">
	.st0{clip-path:url(#SVGID_00000172435073377145442080000006978685510521849233_);}
	.st1{font-family:'AdobeMyungjoStd-Medium-KSCpc-EUC-H';}
	.st2{font-size:18.0236px;}
	.st3{font-size:11.0544px;}
	.st4{letter-spacing:1;}
	.st5{fill:none;stroke:#000000;stroke-width:1.079;stroke-miterlimit:10;}
	.st6{fill:none;stroke:#000000;stroke-width:0.36;stroke-miterlimit:10;}
</style>
<g>
	<defs>
		<rect id="SVGID_1_" x="44.02" y="81.59" width="405.63" height="57.07"/>
	</defs>
	<clipPath id="SVGID_00000170961352943676516810000000022195585005866390_">
		<use xlink:href="#SVGID_1_"  style="overflow:visible;"/>
	</clipPath>
	<g style="clip-path:url(#SVGID_00000170961352943676516810000000022195585005866390_);">
		<text transform="matrix(0.9982 0 0 1 174.8696 116.4321)" class="st1 st2">수</text>
	</g>
	<g style="clip-path:url(#SVGID_00000170961352943676516810000000022195585005866390_);">
		
			<text transform="matrix(1 0 0 -1 1457.9999 -126)" class="st1" style="fill:none;stroke:#000000;stroke-width:0.3601;stroke-miterlimit:10; font-size:150px;">수</text>
	</g>
	<g style="clip-path:url(#SVGID_00000170961352943676516810000000022195585005866390_);">
		<text transform="matrix(0.9982 0 0 1 192.8604 116.4321)" class="st1 st2"> </text>
	</g>
	<g style="clip-path:url(#SVGID_00000170961352943676516810000000022195585005866390_);">
		
			<text transform="matrix(1 0 0 -1 1607.9999 -126)" class="st1" style="fill:none;stroke:#000000;stroke-width:0.3601;stroke-miterlimit:10; font-size:150px;"> </text>
	</g>
	<g style="clip-path:url(#SVGID_00000170961352943676516810000000022195585005866390_);">
		<text transform="matrix(0.9982 0 0 1 201.8555 116.4321)" class="st1 st2">사</text>
	</g>
	<g style="clip-path:url(#SVGID_00000170961352943676516810000000022195585005866390_);">
		
			<text transform="matrix(1 0 0 -1 1682.9999 -126)" class="st1" style="fill:none;stroke:#000000;stroke-width:0.3601;stroke-miterlimit:10; font-size:150px;">사</text>
	</g>
	<g style="clip-path:url(#SVGID_00000170961352943676516810000000022195585005866390_);">
		<text transform="matrix(0.9982 0 0 1 219.8462 116.4321)" class="st1 st2"> </text>
	</g>
	<g style="clip-path:url(#SVGID_00000170961352943676516810000000022195585005866390_);">
		
			<text transform="matrix(1 0 0 -1 1832.9999 -126)" class="st1" style="fill:none;stroke:#000000;stroke-width:0.3601;stroke-miterlimit:10; font-size:150px;"> </text>
	</g>
	<g style="clip-path:url(#SVGID_00000170961352943676516810000000022195585005866390_);">
		<text transform="matrix(0.9982 0 0 1 228.8418 116.4321)" class="st1 st2"> </text>
	</g>
	<g style="clip-path:url(#SVGID_00000170961352943676516810000000022195585005866390_);">
		
			<text transform="matrix(1 0 0 -1 1907.9999 -126)" class="st1" style="fill:none;stroke:#000000;stroke-width:0.3601;stroke-miterlimit:10; font-size:150px;"> </text>
	</g>
	<g style="clip-path:url(#SVGID_00000170961352943676516810000000022195585005866390_);">
		<text transform="matrix(0.9982 0 0 1 237.8369 116.4321)" class="st1 st2"> </text>
	</g>
	<g style="clip-path:url(#SVGID_00000170961352943676516810000000022195585005866390_);">
		
			<text transform="matrix(1 0 0 -1 1982.9999 -126)" class="st1" style="fill:none;stroke:#000000;stroke-width:0.3601;stroke-miterlimit:10; font-size:150px;"> </text>
	</g>
	<g style="clip-path:url(#SVGID_00000170961352943676516810000000022195585005866390_);">
		<text transform="matrix(0.9982 0 0 1 246.832 116.4321)" class="st1 st2">보</text>
	</g>
	<g style="clip-path:url(#SVGID_00000170961352943676516810000000022195585005866390_);">
		
			<text transform="matrix(1 0 0 -1 2057.9998 -126)" class="st1" style="fill:none;stroke:#000000;stroke-width:0.3601;stroke-miterlimit:10; font-size:150px;">보</text>
	</g>
	<g style="clip-path:url(#SVGID_00000170961352943676516810000000022195585005866390_);">
		<text transform="matrix(0.9982 0 0 1 264.8232 116.4321)" class="st1 st2"> </text>
	</g>
	<g style="clip-path:url(#SVGID_00000170961352943676516810000000022195585005866390_);">
		
			<text transform="matrix(1 0 0 -1 2207.9998 -126)" class="st1" style="fill:none;stroke:#000000;stroke-width:0.3601;stroke-miterlimit:10; font-size:150px;"> </text>
	</g>
	<g style="clip-path:url(#SVGID_00000170961352943676516810000000022195585005866390_);">
		<text transform="matrix(0.9982 0 0 1 273.8184 116.4321)" class="st1 st2">고</text>
	</g>
	<g style="clip-path:url(#SVGID_00000170961352943676516810000000022195585005866390_);">
		
			<text transform="matrix(1 0 0 -1 2282.9998 -126)" class="st1" style="fill:none;stroke:#000000;stroke-width:0.3601;stroke-miterlimit:10; font-size:150px;">고</text>
	</g>
	<g style="clip-path:url(#SVGID_00000170961352943676516810000000022195585005866390_);">
		<text transform="matrix(0.9982 0 0 1 291.8091 116.4321)" class="st1 st2"> </text>
	</g>
	<g style="clip-path:url(#SVGID_00000170961352943676516810000000022195585005866390_);">
		
			<text transform="matrix(1 0 0 -1 2432.9998 -126)" class="st1" style="fill:none;stroke:#000000;stroke-width:0.3601;stroke-miterlimit:10; font-size:150px;"> </text>
	</g>
	<g style="clip-path:url(#SVGID_00000170961352943676516810000000022195585005866390_);">
		<text transform="matrix(0.9982 0 0 1 300.8047 116.4321)" class="st1 st2">서</text>
	</g>
	<g style="clip-path:url(#SVGID_00000170961352943676516810000000022195585005866390_);">
		
			<text transform="matrix(1 0 0 -1 2507.9998 -126)" class="st1" style="fill:none;stroke:#000000;stroke-width:0.3601;stroke-miterlimit:10; font-size:150px;">서</text>
	</g>
</g>
<text transform="matrix(0.9982 0 0 1 461.6416 99.7305)" class="st1 st3">사 </text>
<text transform="matrix(0.9982 0 0 1 478.1924 99.7305)"><tspan x="0" y="0" class="st1 st3">건</tspan><tspan x="10.94" y="0" class="st1 st3"> </tspan></text>
<text transform="matrix(0.9982 0 0 1 494.624 99.7305)" class="st1 st3">번 </text>
<text transform="matrix(0.9982 0 0 1 511.0557 99.7305)" class="st1 st3">호</text>
<text transform="matrix(0.9982 0 0 1 466.3184 128.2075)"><tspan x="0" y="0" class="st1 st3">2</tspan><tspan x="6.84" y="0" class="st1 st3">4</tspan><tspan x="13.78" y="0" class="st1 st3">11</tspan><tspan x="27.47" y="0" class="st1 st3">9</tspan><tspan x="34.41" y="0" class="st1 st3">93</tspan><tspan x="48.1" y="0" class="st1 st3">2</tspan></text>
<text transform="matrix(0.9982 0 0 1 73.8818 175.4292)" class="st1 st3">사 </text>
<text transform="matrix(0.9982 0 0 1 90.3135 175.4292)" class="st1 st3">건</text>
<text transform="matrix(0.9982 0 0 1 73.8818 210.7554)" class="st1 st3">개 </text>
<text transform="matrix(0.9982 0 0 1 90.3135 210.7554)" class="st1 st3">요</text>
<text transform="matrix(0.9982 0 0 1 136.3691 159.3281)"><tspan x="0" y="0" class="st1 st3">①</tspan><tspan x="10.94" y="0" class="st1 st3"> </tspan></text>
<text transform="matrix(0.9982 0 0 1 152.8008 159.3281)"><tspan x="0" y="0" class="st1 st3">사</tspan><tspan x="11.05" y="0" class="st1 st3 st4"> </tspan><tspan x="16.46" y="0" class="st1 st3"> </tspan></text>
<text transform="matrix(0.9982 0 0 1 174.7495 159.3281)"><tspan x="0" y="0" class="st1 st3">건</tspan><tspan x="11.05" y="0" class="st1 st3 st4"> </tspan><tspan x="16.46" y="0" class="st1 st3"> </tspan></text>
<text transform="matrix(0.9982 0 0 1 196.6982 159.3281)"><tspan x="0" y="0" class="st1 st3">경</tspan><tspan x="11.05" y="0" class="st1 st3 st4"> </tspan><tspan x="16.46" y="0" class="st1 st3"> </tspan></text>
<text transform="matrix(0.9982 0 0 1 218.647 159.3281)" class="st1 st3">과</text>
<text transform="matrix(0.9982 0 0 1 285.5723 159.3281)"><tspan x="0" y="0" class="st1 st3">광</tspan><tspan x="10.94" y="0" class="st1 st3">성 </tspan></text>
<text transform="matrix(0.9982 0 0 1 313.0381 159.3281)"><tspan x="0" y="0" class="st1 st3">바</tspan><tspan x="10.94" y="0" class="st1 st3">이오</tspan><tspan x="33.05" y="0" class="st1 st3">틱</tspan><tspan x="44" y="0" class="st1 st3">스 </tspan></text>
<text transform="matrix(0.9982 0 0 1 373.4863 159.3281)"><tspan x="0" y="0" class="st1 st3">근</tspan><tspan x="10.94" y="0" class="st1 st3">처에</tspan><tspan x="33.05" y="0" class="st1 st3">서</tspan><tspan x="44" y="0" class="st1 st3"> </tspan></text>
<text transform="matrix(0.9982 0 0 1 422.9014 159.3281)"><tspan x="0" y="0" class="st1 st3">유</tspan><tspan x="11.05" y="0" class="st1 st3">상</tspan><tspan x="22" y="0" class="st1 st3">신 </tspan></text>
<text transform="matrix(0.9982 0 0 1 461.4014 159.3281)"><tspan x="0" y="0" class="st1 st3">사</tspan><tspan x="10.94" y="0" class="st1 st3">망</tspan></text>
<text transform="matrix(0.9982 0 0 1 136.3691 193.0923)" class="st1 st3">② </text>
<text transform="matrix(0.9982 0 0 1 152.8008 193.0923)"><tspan x="0" y="0" class="st1 st3">신</tspan><tspan x="11.05" y="0" class="st1 st3 st4"> </tspan><tspan x="16.57" y="0" class="st1 st3 st4"> </tspan><tspan x="21.98" y="0" class="st1 st3 st4"> </tspan><tspan x="27.49" y="0" class="st1 st3"> </tspan></text>
<text transform="matrix(0.9982 0 0 1 185.7837 193.0923)"><tspan x="0" y="0" class="st1 st3">고</tspan><tspan x="10.94" y="0" class="st1 st3 st4">  </tspan><tspan x="21.98" y="0" class="st1 st3 st4"> </tspan><tspan x="27.38" y="0" class="st1 st3"> </tspan></text>
<text transform="matrix(0.9982 0 0 1 218.647 193.0923)" class="st1 st3">자</text>
<text transform="matrix(0.9982 0 0 1 257.627 193.0923)"><tspan x="0" y="0" class="st1 st3">임</tspan><tspan x="11.05" y="0" class="st1 st3 st4"> </tspan><tspan x="16.57" y="0" class="st1 st3"> </tspan></text>
<text transform="matrix(0.9982 0 0 1 279.5752 193.0923)"><tspan x="0" y="0" class="st1 st3">연</tspan><tspan x="11.05" y="0" class="st1 st3 st4"> </tspan><tspan x="16.57" y="0" class="st1 st3"> </tspan></text>
<text transform="matrix(0.9982 0 0 1 301.5244 193.0923)" class="st1 st3">서</text>
<text transform="matrix(0.9982 0 0 1 343.2627 193.0923)" class="st1 st3">③ </text>
<text transform="matrix(0.9982 0 0 1 359.6943 193.0923)"><tspan x="0" y="0" class="st1 st3">사</tspan><tspan x="11.05" y="0" class="st1 st3 st4"> </tspan><tspan x="16.57" y="0" class="st1 st3 st4"> </tspan><tspan x="21.98" y="0" class="st1 st3"> </tspan></text>
<text transform="matrix(0.9982 0 0 1 387.1602 193.0923)"><tspan x="0" y="0" class="st1 st3">망</tspan><tspan x="11.05" y="0" class="st1 st3 st4"> </tspan><tspan x="16.46" y="0" class="st1 st3 st4"> </tspan><tspan x="21.98" y="0" class="st1 st3"> </tspan></text>
<text transform="matrix(0.9982 0 0 1 414.625 193.0923)" class="st1 st3">자</text>
<text transform="matrix(0.9982 0 0 1 456.2441 193.0923)"><tspan x="0" y="0" class="st1 st3">유</tspan><tspan x="11.05" y="0" class="st1 st3 st4"> </tspan><tspan x="16.57" y="0" class="st1 st3"> </tspan></text>
<text transform="matrix(0.9982 0 0 1 478.1924 193.0923)"><tspan x="0" y="0" class="st1 st3">상</tspan><tspan x="11.05" y="0" class="st1 st3 st4"> </tspan><tspan x="16.57" y="0" class="st1 st3"> </tspan></text>
<text transform="matrix(0.9982 0 0 1 500.1416 193.0923)" class="st1 st3">신</text>
<text transform="matrix(0.9982 0 0 1 136.3691 226.8564)" class="st1 st3">④ </text>
<text transform="matrix(0.9982 0 0 1 152.8008 226.8564)"><tspan x="0" y="0" class="st1 st3">발</tspan><tspan x="11.05" y="0" class="st1 st3 st4"> </tspan><tspan x="16.57" y="0" class="st1 st3 st4"> </tspan><tspan x="21.98" y="0" class="st1 st3 st4"> </tspan><tspan x="27.49" y="0" class="st1 st3"> </tspan></text>
<text transform="matrix(0.9982 0 0 1 185.7837 226.8564)"><tspan x="0" y="0" class="st1 st3">생</tspan><tspan x="10.94" y="0" class="st1 st3 st4">  </tspan><tspan x="21.98" y="0" class="st1 st3 st4"> </tspan><tspan x="27.38" y="0" class="st1 st3"> </tspan></text>
<text transform="matrix(0.9982 0 0 1 218.647 226.8564)" class="st1 st3">일</text>
<text transform="matrix(0.9982 0 0 1 256.3076 226.8564)"><tspan x="0" y="0" class="st1 st3">2</tspan><tspan x="6.94" y="0" class="st1 st3">02</tspan><tspan x="20.63" y="0" class="st1 st3">4</tspan><tspan x="27.57" y="0" class="st1 st3">.</tspan><tspan x="30.7" y="0" class="st1 st3">1</tspan><tspan x="37.64" y="0" class="st1 st3">1</tspan><tspan x="44.48" y="0" class="st1 st3">.</tspan><tspan x="47.72" y="0" class="st1 st3">1</tspan><tspan x="54.56" y="0" class="st1 st3">2</tspan></text>
<text transform="matrix(0.9982 0 0 1 343.2627 226.8564)"><tspan x="0" y="0" class="st1 st3">⑤</tspan><tspan x="10.94" y="0" class="st1 st3"> </tspan></text>
<text transform="matrix(0.9982 0 0 1 359.6943 226.8564)" class="st1 st3">사 </text>
<text transform="matrix(0.9982 0 0 1 376.125 226.8564)"><tspan x="0" y="0" class="st1 st3">건</tspan><tspan x="11.05" y="0" class="st1 st3 st4"> </tspan><tspan x="16.57" y="0" class="st1 st3"> </tspan></text>
<text transform="matrix(0.9982 0 0 1 398.0742 226.8564)" class="st1 st3">장 </text>
<text transform="matrix(0.9982 0 0 1 414.625 226.8564)" class="st1 st3">소</text>
<text transform="matrix(0.9982 0 0 1 442.4512 217.9644)" class="st1 st3">광성 </text>
<text transform="matrix(0.9982 0 0 1 469.917 217.9644)"><tspan x="0" y="0" class="st1 st3">바이</tspan><tspan x="22.11" y="0" class="st1 st3">오</tspan><tspan x="33.05" y="0" class="st1 st3">틱스 </tspan></text>
<text transform="matrix(0.9982 0 0 1 453.4854 235.6274)"><tspan x="0" y="0" class="st1 st3">근</tspan><tspan x="11.05" y="0" class="st1 st3">처</tspan><tspan x="22" y="0" class="st1 st3"> </tspan></text>
<text transform="matrix(0.9982 0 0 1 480.9512 235.6274)"><tspan x="0" y="0" class="st1 st3">골</tspan><tspan x="11.05" y="0" class="st1 st3">목</tspan><tspan x="22" y="0" class="st1 st3">길</tspan></text>
<text transform="matrix(0.9982 0 0 1 54.6914 285.8535)"><tspan x="0" y="0" class="st1 st3">발</tspan><tspan x="10.94" y="0" class="st1 st3">견 </tspan></text>
<text transform="matrix(0.9982 0 0 1 82.1572 285.8535)"><tspan x="0" y="0" class="st1 st3">및</tspan><tspan x="10.94" y="0" class="st1 st3"> </tspan></text>
<text transform="matrix(0.9982 0 0 1 98.5889 285.8535)" class="st1 st3">정보</text>
<text transform="matrix(0.9982 0 0 1 177.2681 250.6475)"><tspan x="0" y="0" class="st1 st3">광</tspan><tspan x="10.94" y="0" class="st1 st3">성 </tspan></text>
<text transform="matrix(0.9982 0 0 1 204.7339 250.6475)"><tspan x="0" y="0" class="st1 st3">바</tspan><tspan x="10.94" y="0" class="st1 st3">이오</tspan><tspan x="33.05" y="0" class="st1 st3">틱</tspan><tspan x="44" y="0" class="st1 st3">스 </tspan></text>
<text transform="matrix(0.9982 0 0 1 265.1826 250.6475)"><tspan x="0" y="0" class="st1 st3">근</tspan><tspan x="10.94" y="0" class="st1 st3">처 </tspan></text>
<text transform="matrix(0.9982 0 0 1 292.6484 250.6475)"><tspan x="0" y="0" class="st1 st3">골</tspan><tspan x="10.94" y="0" class="st1 st3">목에</tspan><tspan x="33.05" y="0" class="st1 st3">서</tspan><tspan x="44" y="0" class="st1 st3"> </tspan></text>
<text transform="matrix(0.9982 0 0 1 342.0635 250.6475)"><tspan x="0" y="0" class="st1 st3">칼</tspan><tspan x="11.05" y="0" class="st1 st3">에</tspan><tspan x="22" y="0" class="st1 st3"> </tspan></text>
<text transform="matrix(0.9982 0 0 1 369.5293 250.6475)"><tspan x="0" y="0" class="st1 st3">찔</tspan><tspan x="11.05" y="0" class="st1 st3">린</tspan><tspan x="22" y="0" class="st1 st3"> </tspan></text>
<text transform="matrix(0.9982 0 0 1 396.9941 250.6475)" class="st1 st3">채 </text>
<text transform="matrix(0.9982 0 0 1 413.4258 250.6475)"><tspan x="0" y="0" class="st1 st3">사체</tspan><tspan x="22.11" y="0" class="st1 st3">로</tspan><tspan x="33.05" y="0" class="st1 st3"> </tspan></text>
<text transform="matrix(0.9982 0 0 1 451.9258 250.6475)"><tspan x="0" y="0" class="st1 st3">발</tspan><tspan x="11.05" y="0" class="st1 st3">견</tspan><tspan x="22" y="0" class="st1 st3">됨</tspan></text>
<text transform="matrix(0.9982 0 0 1 484.9092 250.6475)" class="st1 st3">.</text>
<text transform="matrix(0.9982 0 0 1 190.9414 268.1904)"><tspan x="0" y="0" class="st1 st3">현</tspan><tspan x="11.05" y="0" class="st1 st3">장</tspan><tspan x="22" y="0" class="st1 st3">에 </tspan></text>
<text transform="matrix(0.9982 0 0 1 229.4414 268.1904)"><tspan x="0" y="0" class="st1 st3">유</tspan><tspan x="10.94" y="0" class="st1 st3">상신</tspan><tspan x="33.05" y="0" class="st1 st3">의</tspan><tspan x="44" y="0" class="st1 st3"> </tspan></text>
<text transform="matrix(0.9982 0 0 1 278.8555 268.1904)"><tspan x="0" y="0" class="st1 st3">캐</tspan><tspan x="11.05" y="0" class="st1 st3">리</tspan><tspan x="22" y="0" class="st1 st3">어 </tspan></text>
<text transform="matrix(0.9982 0 0 1 317.3555 268.1904)"><tspan x="0" y="0" class="st1 st3">열</tspan><tspan x="10.94" y="0" class="st1 st3">려 </tspan></text>
<text transform="matrix(0.9982 0 0 1 344.8213 268.1904)"><tspan x="0" y="0" class="st1 st3">있</tspan><tspan x="10.94" y="0" class="st1 st3">었고</tspan></text>
<text transform="matrix(0.9982 0 0 1 377.8047 268.1904)"><tspan x="0" y="0" class="st1 st3">,</tspan><tspan x="3.13" y="0" class="st1 st3"> </tspan></text>
<text transform="matrix(0.9982 0 0 1 386.4404 268.1904)"><tspan x="0" y="0" class="st1 st3">짐</tspan><tspan x="11.05" y="0" class="st1 st3">이</tspan><tspan x="22" y="0" class="st1 st3"> </tspan></text>
<text transform="matrix(0.9982 0 0 1 413.9062 268.1904)"><tspan x="0" y="0" class="st1 st3">흩</tspan><tspan x="11.05" y="0" class="st1 st3">어</tspan><tspan x="22" y="0" class="st1 st3">져 </tspan></text>
<text transform="matrix(0.9982 0 0 1 452.4062 268.1904)"><tspan x="0" y="0" class="st1 st3">있</tspan><tspan x="10.94" y="0" class="st1 st3">음</tspan></text>
<text transform="matrix(0.9982 0 0 1 251.3896 285.8535)"><tspan x="0" y="0" class="st1 st3">자</tspan><tspan x="11.05" y="0" class="st1 st3">세</tspan><tspan x="22" y="0" class="st1 st3">한 </tspan></text>
<text transform="matrix(0.9982 0 0 1 289.8901 285.8535)"><tspan x="0" y="0" class="st1 st3">사</tspan><tspan x="10.94" y="0" class="st1 st3">인 </tspan></text>
<text transform="matrix(0.9982 0 0 1 317.3555 285.8535)"><tspan x="0" y="0" class="st1 st3">검</tspan><tspan x="10.94" y="0" class="st1 st3">시 </tspan></text>
<text transform="matrix(0.9982 0 0 1 344.8213 285.8535)"><tspan x="0" y="0" class="st1 st3">결</tspan><tspan x="10.94" y="0" class="st1 st3">과 </tspan></text>
<text transform="matrix(0.9982 0 0 1 372.2871 285.8535)"><tspan x="0" y="0" class="st1 st3">대</tspan><tspan x="10.94" y="0" class="st1 st3">기 </tspan></text>
<text transform="matrix(0.9982 0 0 1 399.7529 285.8535)" class="st1 st3">중</text>
<text transform="matrix(0.9982 0 0 1 410.668 285.8535)" class="st1 st3">.</text>
<text transform="matrix(0.9982 0 0 1 157.958 303.5166)"><tspan x="0" y="0" class="st1 st3">신</tspan><tspan x="11.05" y="0" class="st1 st3">고</tspan><tspan x="22" y="0" class="st1 st3">자는 </tspan></text>
<text transform="matrix(0.9982 0 0 1 207.3726 303.5166)"><tspan x="0" y="0" class="st1 st3">길고</tspan><tspan x="22.11" y="0" class="st1 st3">양</tspan><tspan x="33.05" y="0" class="st1 st3">이에</tspan><tspan x="55.16" y="0" class="st1 st3">게</tspan><tspan x="66.11" y="0" class="st1 st3"> </tspan></text>
<text transform="matrix(0.9982 0 0 1 278.8555 303.5166)"><tspan x="0" y="0" class="st1 st3">밥</tspan><tspan x="11.05" y="0" class="st1 st3">을</tspan><tspan x="22" y="0" class="st1 st3"> </tspan></text>
<text transform="matrix(0.9982 0 0 1 306.3213 303.5166)"><tspan x="0" y="0" class="st1 st3">주</tspan><tspan x="11.05" y="0" class="st1 st3">다</tspan><tspan x="22" y="0" class="st1 st3">가 </tspan></text>
<text transform="matrix(0.9982 0 0 1 344.8213 303.5166)"><tspan x="0" y="0" class="st1 st3">우</tspan><tspan x="10.94" y="0" class="st1 st3">연히 </tspan></text>
<text transform="matrix(0.9982 0 0 1 383.2021 303.5166)" class="st1 st3">해당 </text>
<text transform="matrix(0.9982 0 0 1 410.668 303.5166)"><tspan x="0" y="0" class="st1 st3">골목</tspan><tspan x="22.11" y="0" class="st1 st3">으</tspan><tspan x="33.05" y="0" class="st1 st3">로 </tspan></text>
<text transform="matrix(0.9982 0 0 1 460.2021 303.5166)"><tspan x="0" y="0" class="st1 st3">들</tspan><tspan x="10.94" y="0" class="st1 st3">어왔고</tspan></text>
<text transform="matrix(0.9982 0 0 1 504.0996 303.5166)" class="st1 st3">,</text>
<text transform="matrix(0.9982 0 0 1 198.0176 321.0596)" class="st1 st3">그 </text>
<text transform="matrix(0.9982 0 0 1 214.5688 321.0596)"><tspan x="0" y="0" class="st1 st3">때</tspan><tspan x="10.94" y="0" class="st1 st3"> </tspan></text>
<text transform="matrix(0.9982 0 0 1 231.0005 321.0596)"><tspan x="0" y="0" class="st1 st3">시</tspan><tspan x="11.05" y="0" class="st1 st3">체</tspan><tspan x="22" y="0" class="st1 st3"> </tspan></text>
<text transform="matrix(0.9982 0 0 1 258.4663 321.0596)"><tspan x="0" y="0" class="st1 st3">옆</tspan><tspan x="11.05" y="0" class="st1 st3">에</tspan><tspan x="22" y="0" class="st1 st3">서 </tspan></text>
<text transform="matrix(0.9982 0 0 1 296.9663 321.0596)"><tspan x="0" y="0" class="st1 st3">빠</tspan><tspan x="10.94" y="0" class="st1 st3">져나</tspan><tspan x="33.05" y="0" class="st1 st3">가</tspan><tspan x="44" y="0" class="st1 st3">는 </tspan></text>
<text transform="matrix(0.9982 0 0 1 357.415 321.0596)"><tspan x="0" y="0" class="st1 st3">차</tspan><tspan x="10.94" y="0" class="st1 st3">를 </tspan></text>
<text transform="matrix(0.9982 0 0 1 384.8809 321.0596)"><tspan x="0" y="0" class="st1 st3">목</tspan><tspan x="10.94" y="0" class="st1 st3">격했</tspan><tspan x="33.05" y="0" class="st1 st3">다</tspan><tspan x="44" y="0" class="st1 st3">고 </tspan></text>
<text transform="matrix(0.9982 0 0 1 445.3301 321.0596)"><tspan x="0" y="0" class="st1 st3">증</tspan><tspan x="10.94" y="0" class="st1 st3">언</tspan></text>
<text transform="matrix(0.9982 0 0 1 62.8477 371.6455)" class="st1 st3">조사 </text>
<text transform="matrix(0.9982 0 0 1 90.3135 371.6455)" class="st1 st3">과정</text>
<text transform="matrix(0.9982 0 0 1 181.1064 345.2109)" class="st1 st3">주변 </text>
<text transform="matrix(0.9982 0 0 1 208.5723 345.2109)"><tspan x="0" y="0" class="st1 st3">CC</tspan><tspan x="15.59" y="0" class="st1 st3">T</tspan><tspan x="24.33" y="0" class="st1 st3">V</tspan><tspan x="32.61" y="0" class="st1 st3"> </tspan></text>
<text transform="matrix(0.9982 0 0 1 244.7935 345.2109)"><tspan x="0" y="0" class="st1 st3">영</tspan><tspan x="10.94" y="0" class="st1 st3">상 </tspan></text>
<text transform="matrix(0.9982 0 0 1 272.2593 345.2109)"><tspan x="0" y="0" class="st1 st3">및</tspan><tspan x="10.94" y="0" class="st1 st3"> </tspan></text>
<text transform="matrix(0.9982 0 0 1 288.6904 345.2109)"><tspan x="0" y="0" class="st1 st3">목</tspan><tspan x="11.05" y="0" class="st1 st3">격</tspan><tspan x="22" y="0" class="st1 st3">자 </tspan></text>
<text transform="matrix(0.9982 0 0 1 327.1904 345.2109)"><tspan x="0" y="0" class="st1 st3">진</tspan><tspan x="10.94" y="0" class="st1 st3">술을 </tspan></text>
<text transform="matrix(0.9982 0 0 1 365.5713 345.2109)"><tspan x="0" y="0" class="st1 st3">토대</tspan><tspan x="22.11" y="0" class="st1 st3">로</tspan><tspan x="33.05" y="0" class="st1 st3"> </tspan></text>
<text transform="matrix(0.9982 0 0 1 404.0713 345.2109)"><tspan x="0" y="0" class="st1 st3">사</tspan><tspan x="11.05" y="0" class="st1 st3">건</tspan><tspan x="22" y="0" class="st1 st3"> </tspan></text>
<text transform="matrix(0.9982 0 0 1 431.5371 345.2109)"><tspan x="0" y="0" class="st1 st3">재</tspan><tspan x="11.05" y="0" class="st1 st3">구</tspan><tspan x="22" y="0" class="st1 st3">성 </tspan></text>
<text transform="matrix(0.9982 0 0 1 470.0371 345.2109)" class="st1 st3">중</text>
<text transform="matrix(0.9982 0 0 1 480.9512 345.2109)" class="st1 st3">.</text>
<text transform="matrix(0.9982 0 0 1 240.3555 362.7539)"><tspan x="0" y="0" class="st1 st3">유상</tspan><tspan x="22.11" y="0" class="st1 st3">신</tspan><tspan x="33.05" y="0" class="st1 st3">의 </tspan></text>
<text transform="matrix(0.9982 0 0 1 289.8901 362.7539)"><tspan x="0" y="0" class="st1 st3">가</tspan><tspan x="10.94" y="0" class="st1 st3">족과 </tspan></text>
<text transform="matrix(0.9982 0 0 1 328.2705 362.7539)" class="st1 st3">주변 </text>
<text transform="matrix(0.9982 0 0 1 355.7363 362.7539)" class="st1 st3">인맥 </text>
<text transform="matrix(0.9982 0 0 1 383.2021 362.7539)" class="st1 st3">조사 </text>
<text transform="matrix(0.9982 0 0 1 410.668 362.7539)" class="st1 st3">중</text>
<text transform="matrix(0.9982 0 0 1 421.7021 362.7539)" class="st1 st3">.</text>
<text transform="matrix(0.9982 0 0 1 207.4927 380.417)"><tspan x="0" y="0" class="st1 st3">가</tspan><tspan x="10.94" y="0" class="st1 st3">족 </tspan></text>
<text transform="matrix(0.9982 0 0 1 234.9585 380.417)"><tspan x="0" y="0" class="st1 st3">및</tspan><tspan x="10.94" y="0" class="st1 st3"> </tspan></text>
<text transform="matrix(0.9982 0 0 1 251.3896 380.417)"><tspan x="0" y="0" class="st1 st3">주</tspan><tspan x="11.05" y="0" class="st1 st3">변</tspan><tspan x="22" y="0" class="st1 st3">인들</tspan><tspan x="44.11" y="0" class="st1 st3">의</tspan><tspan x="55.05" y="0" class="st1 st3"> </tspan></text>
<text transform="matrix(0.9982 0 0 1 311.8389 380.417)"><tspan x="0" y="0" class="st1 st3">진</tspan><tspan x="11.05" y="0" class="st1 st3">술</tspan><tspan x="22" y="0" class="st1 st3">을 </tspan></text>
<text transform="matrix(0.9982 0 0 1 350.3389 380.417)"><tspan x="0" y="0" class="st1 st3">통</tspan><tspan x="10.94" y="0" class="st1 st3">해 </tspan></text>
<text transform="matrix(0.9982 0 0 1 377.8047 380.417)"><tspan x="0" y="0" class="st1 st3">동</tspan><tspan x="10.94" y="0" class="st1 st3">기 </tspan></text>
<text transform="matrix(0.9982 0 0 1 405.2705 380.417)"><tspan x="0" y="0" class="st1 st3">파</tspan><tspan x="10.94" y="0" class="st1 st3">악 </tspan></text>
<text transform="matrix(0.9982 0 0 1 432.7363 380.417)"><tspan x="0" y="0" class="st1 st3">시</tspan><tspan x="10.94" y="0" class="st1 st3">도</tspan></text>
<text transform="matrix(0.9982 0 0 1 454.6846 380.417)" class="st1 st3">.</text>
<text transform="matrix(0.9982 0 0 1 201.9756 398.0801)"><tspan x="0" y="0" class="st1 st3">타</tspan><tspan x="10.94" y="0" class="st1 st3">인 </tspan></text>
<text transform="matrix(0.9982 0 0 1 229.4414 398.0801)"><tspan x="0" y="0" class="st1 st3">범</tspan><tspan x="10.94" y="0" class="st1 st3">행 </tspan></text>
<text transform="matrix(0.9982 0 0 1 256.9072 398.0801)"><tspan x="0" y="0" class="st1 st3">가</tspan><tspan x="10.94" y="0" class="st1 st3">능성</tspan><tspan x="33.05" y="0" class="st1 st3">을</tspan><tspan x="44" y="0" class="st1 st3"> </tspan></text>
<text transform="matrix(0.9982 0 0 1 306.3213 398.0801)"><tspan x="0" y="0" class="st1 st3">검</tspan><tspan x="11.05" y="0" class="st1 st3">토</tspan><tspan x="22" y="0" class="st1 st3">하기 </tspan></text>
<text transform="matrix(0.9982 0 0 1 355.7363 398.0801)" class="st1 st3">위한 </text>
<text transform="matrix(0.9982 0 0 1 383.2021 398.0801)" class="st1 st3">추가 </text>
<text transform="matrix(0.9982 0 0 1 410.668 398.0801)" class="st1 st3">조사 </text>
<text transform="matrix(0.9982 0 0 1 438.1338 398.0801)" class="st1 st3">진행</text>
<text transform="matrix(0.9982 0 0 1 460.2021 398.0801)" class="st1 st3">.</text>
<text transform="matrix(0.9982 0 0 1 74.4814 470.7754)" class="st1 st3">상기 </text>
<text transform="matrix(0.9982 0 0 1 101.9473 470.7754)" class="st1 st3">수사 </text>
<text transform="matrix(0.9982 0 0 1 129.4131 470.7754)"><tspan x="0" y="0" class="st1 st3">내용</tspan><tspan x="22.11" y="0" class="st1 st3">을</tspan><tspan x="33.05" y="0" class="st1 st3"> </tspan></text>
<text transform="matrix(0.9982 0 0 1 167.9131 470.7754)"><tspan x="0" y="0" class="st1 st3">보</tspan><tspan x="11.05" y="0" class="st1 st3">고</tspan><tspan x="22" y="0" class="st1 st3">합니다</tspan></text>
<text transform="matrix(0.9982 0 0 1 208.5723 521.4814)"><tspan x="0" y="0" class="st1 st3">2</tspan><tspan x="6.94" y="0" class="st1 st3">02</tspan><tspan x="20.63" y="0" class="st1 st3">4</tspan></text>
<text transform="matrix(0.9982 0 0 1 234.2388 521.4814)"><tspan x="0" y="0" class="st1 st3">년</tspan><tspan x="10.94" y="0" class="st1 st3 st4">  </tspan><tspan x="21.98" y="0" class="st1 st3 st4"> </tspan><tspan x="27.38" y="0" class="st1 st3 st4">  </tspan><tspan x="38.41" y="0" class="st1 st3 st4"> </tspan><tspan x="43.82" y="0" class="st1 st3"> </tspan></text>
<text transform="matrix(0.9982 0 0 1 283.5332 521.4814)"><tspan x="0" y="0" class="st1 st3">1</tspan><tspan x="6.84" y="0" class="st1 st3">1</tspan></text>
<text transform="matrix(0.9982 0 0 1 296.3667 521.4814)"><tspan x="0" y="0" class="st1 st3">월</tspan><tspan x="10.94" y="0" class="st1 st3 st4">  </tspan><tspan x="21.98" y="0" class="st1 st3 st4"> </tspan><tspan x="27.38" y="0" class="st1 st3 st4">  </tspan><tspan x="38.41" y="0" class="st1 st3 st4"> </tspan><tspan x="43.82" y="0" class="st1 st3"> </tspan></text>
<text transform="matrix(0.9982 0 0 1 345.6611 521.4814)"><tspan x="0" y="0" class="st1 st3">1</tspan><tspan x="6.84" y="0" class="st1 st3">2</tspan></text>
<text transform="matrix(0.9982 0 0 1 358.4941 521.4814)" class="st1 st3">일</text>
<text transform="matrix(0.9982 0 0 1 356.4551 554.5244)"><tspan x="0" y="0" class="st1 st3">담</tspan><tspan x="10.94" y="0" class="st1 st3">당 </tspan></text>
<text transform="matrix(0.9982 0 0 1 383.9219 554.5244)"><tspan x="0" y="0" class="st1 st3">수</tspan><tspan x="10.94" y="0" class="st1 st3">사관</tspan><tspan x="33.05" y="0" class="st1 st3 st4"> </tspan><tspan x="38.46" y="0" class="st1 st3 st4">  </tspan><tspan x="49.49" y="0" class="st1 st3"> </tspan></text>
<text transform="matrix(0.9982 0 0 1 438.7334 554.5244)" class="st1 st3">이 </text>
<text transform="matrix(0.9982 0 0 1 455.2842 554.5244)"><tspan x="0" y="0" class="st1 st3">한</tspan><tspan x="10.94" y="0" class="st1 st3"> </tspan></text>
<text transform="matrix(0.9982 0 0 1 471.7158 554.5244)"><tspan x="0" y="0" class="st1 st3">웅</tspan><tspan x="11.05" y="0" class="st1 st3 st4"> </tspan><tspan x="16.46" y="0" class="st1 st3 st4">  </tspan><tspan x="27.49" y="0" class="st1 st3 st4"> </tspan><tspan x="32.9" y="0" class="st1 st3 st4">  </tspan><tspan x="43.93" y="0" class="st1 st3 st4"> </tspan><tspan x="49.34" y="0" class="st1 st3"> </tspan></text>
<text transform="matrix(0.9982 0 0 1 234.1191 620.6113)" class="st1 st3">한</text>
<text transform="matrix(1 0 0 -1 1951.9999 -4322)" class="st1" style="fill:none;stroke:#000000;stroke-width:0.2209;stroke-miterlimit:10; font-size:92px;">한</text>
<text transform="matrix(0.9982 0 0 1 245.1533 620.6113)" class="st1 st3"> </text>
<text transform="matrix(1 0 0 -1 2043.9999 -4322)" class="st1" style="fill:none;stroke:#000000;stroke-width:0.2209;stroke-miterlimit:10; font-size:92px;"> </text>
<text transform="matrix(0.9982 0 0 1 250.5503 620.6113)" class="st1 st3">국</text>
<text transform="matrix(1 0 0 -1 2088.9998 -4322)" class="st1" style="fill:none;stroke:#000000;stroke-width:0.2209;stroke-miterlimit:10; font-size:92px;">국</text>
<text transform="matrix(0.9982 0 0 1 261.5845 620.6113)" class="st1 st3"> </text>
<text transform="matrix(1 0 0 -1 2180.9998 -4322)" class="st1" style="fill:none;stroke:#000000;stroke-width:0.2209;stroke-miterlimit:10; font-size:92px;"> </text>
<text transform="matrix(0.9982 0 0 1 267.1016 620.6113)" class="st1 st3">지</text>
<text transform="matrix(1 0 0 -1 2226.9998 -4322)" class="st1" style="fill:none;stroke:#000000;stroke-width:0.2209;stroke-miterlimit:10; font-size:92px;">지</text>
<text transform="matrix(0.9982 0 0 1 278.0156 620.6113)" class="st1 st3"> </text>
<text transform="matrix(1 0 0 -1 2317.9978 -4322)" class="st1" style="fill:none;stroke:#000000;stroke-width:0.2209;stroke-miterlimit:10; font-size:92px;"> </text>
<text transform="matrix(0.9982 0 0 1 283.5332 620.6113)" class="st1 st3">방</text>
<text transform="matrix(1 0 0 -1 2363.9998 -4322)" class="st1" style="fill:none;stroke:#000000;stroke-width:0.2209;stroke-miterlimit:10; font-size:92px;">방</text>
<text transform="matrix(0.9982 0 0 1 294.5674 620.6113)" class="st1 st3"> </text>
<text transform="matrix(1 0 0 -1 2455.9998 -4322)" class="st1" style="fill:none;stroke:#000000;stroke-width:0.2209;stroke-miterlimit:10; font-size:92px;"> </text>
<text transform="matrix(0.9982 0 0 1 299.9648 620.6113)" class="st1 st3">경</text>
<text transform="matrix(1 0 0 -1 2500.9998 -4322)" class="st1" style="fill:none;stroke:#000000;stroke-width:0.2209;stroke-miterlimit:10; font-size:92px;">경</text>
<text transform="matrix(0.9982 0 0 1 310.999 620.6113)" class="st1 st3"> </text>
<text transform="matrix(1 0 0 -1 2592.9998 -4322)" class="st1" style="fill:none;stroke:#000000;stroke-width:0.2209;stroke-miterlimit:10; font-size:92px;"> </text>
<text transform="matrix(0.9982 0 0 1 316.5166 620.6113)" class="st1 st3">찰</text>
<text transform="matrix(1 0 0 -1 2638.9998 -4322)" class="st1" style="fill:none;stroke:#000000;stroke-width:0.2209;stroke-miterlimit:10; font-size:92px;">찰</text>
<text transform="matrix(0.9982 0 0 1 327.4307 620.6113)" class="st1 st3"> </text>
<text transform="matrix(1 0 0 -1 2729.9978 -4322)" class="st1" style="fill:none;stroke:#000000;stroke-width:0.2209;stroke-miterlimit:10; font-size:92px;"> </text>
<text transform="matrix(0.9982 0 0 1 332.9473 620.6113)" class="st1 st3">청</text>
<text transform="matrix(1 0 0 -1 2775.9998 -4322)" class="st1" style="fill:none;stroke:#000000;stroke-width:0.2209;stroke-miterlimit:10; font-size:92px;">청</text>
<line class="st5" x1="44.02" y1="81.59" x2="44.02" y2="672.28"/>
<line class="st6" x1="131.21" y1="138.66" x2="131.21" y2="411.3"/>
<line class="st6" x1="234.72" y1="138.66" x2="234.72" y2="239.83"/>
<line class="st6" x1="335.47" y1="172.3" x2="335.47" y2="239.83"/>
<line class="st6" x1="433.33" y1="172.3" x2="433.33" y2="239.83"/>
<line class="st6" x1="449.65" y1="81.59" x2="449.65" y2="138.66"/>
<line class="st5" x1="534.08" y1="81.59" x2="534.08" y2="672.28"/>
<line class="st5" x1="43.54" y1="81.59" x2="534.68" y2="81.59"/>
<line class="st6" x1="449.53" y1="110.18" x2="534.68" y2="110.18"/>
<line class="st6" x1="43.54" y1="138.66" x2="534.68" y2="138.66"/>
<line class="st6" x1="131.09" y1="172.3" x2="534.68" y2="172.3"/>
<line class="st6" x1="131.09" y1="206.07" x2="534.68" y2="206.07"/>
<line class="st6" x1="43.54" y1="239.83" x2="534.68" y2="239.83"/>
<line class="st6" x1="43.54" y1="324.18" x2="534.68" y2="324.18"/>
<line class="st6" x1="43.54" y1="411.3" x2="534.68" y2="411.3"/>
<line class="st5" x1="43.54" y1="672.28" x2="534.68" y2="672.28"/>
<line class="st5" x1="534.08" y1="81.59" x2="534.08" y2="672.28"/>
<line class="st5" x1="44.02" y1="81.59" x2="44.02" y2="672.28"/>
<line class="st5" x1="43.54" y1="672.28" x2="534.68" y2="672.28"/>
<line class="st5" x1="43.54" y1="81.59" x2="534.68" y2="81.59"/>
<text transform="matrix(0.9982 0 0 1 42.5781 689.7012)"><tspan x="0" y="0" class="st1 st3">2</tspan><tspan x="6.84" y="0" class="st1 st3">4</tspan><tspan x="13.78" y="0" class="st1 st3">11</tspan><tspan x="27.47" y="0" class="st1 st3">9</tspan><tspan x="34.41" y="0" class="st1 st3">93</tspan><tspan x="48.1" y="0" class="st1 st3">2</tspan></text>
<text transform="matrix(0.9982 0 0 1 42.5781 707.2441)"><tspan x="0" y="0" class="st1 st3">2</tspan><tspan x="6.84" y="0" class="st1 st3">4</tspan><tspan x="13.78" y="0" class="st1 st3">.</tspan><tspan x="16.91" y="0" class="st1 st3">1</tspan><tspan x="23.86" y="0" class="st1 st3">1</tspan><tspan x="30.7" y="0" class="st1 st3">.</tspan><tspan x="33.94" y="0" class="st1 st3">1</tspan><tspan x="40.78" y="0" class="st1 st3">2</tspan><tspan x="47.72" y="0" class="st1 st3">.</tspan></text>
<text transform="matrix(0.9982 0 0 1 90.5532 707.2441)"><tspan x="0" y="0" class="st1 st3">승</tspan><tspan x="11.05" y="0" class="st1 st3">인</tspan><tspan x="22" y="0" class="st1 st3"> </tspan></text>
</svg>
