<?xml version="1.0" encoding="utf-8"?>
<!-- Generator: Adobe Illustrator 27.9.0, SVG Export Plug-In . SVG Version: 6.00 Build 0)  -->
<svg version="1.1" id="레이어_1" xmlns="http://www.w3.org/2000/svg" xmlns:xlink="http://www.w3.org/1999/xlink" x="0px"
	 y="0px" viewBox="0 0 595 843" style="enable-background:new 0 0 595 843;" xml:space="preserve">
<style type="text/css">
	.st0{clip-path:url(#SVGID_00000148629368379029098560000013037131963504477341_);}
	.st1{font-family:'AdobeMyungjoStd-Medium-KSCpc-EUC-H';}
	.st2{font-size:18.0236px;}
	.st3{font-size:11.0544px;}
	.st4{letter-spacing:1;}
	.st5{fill:none;stroke:#000000;stroke-width:1.079;stroke-miterlimit:10;}
	.st6{fill:none;stroke:#000000;stroke-width:0.36;stroke-miterlimit:10;}
</style>
<g>
	<defs>
		<rect id="SVGID_1_" x="44.02" y="81.59" width="405.63" height="57.07"/>
	</defs>
	<clipPath id="SVGID_00000039134451277831978960000010587783703482005386_">
		<use xlink:href="#SVGID_1_"  style="overflow:visible;"/>
	</clipPath>
	<g style="clip-path:url(#SVGID_00000039134451277831978960000010587783703482005386_);">
		<text transform="matrix(0.9982 0 0 1 174.8696 116.4321)" class="st1 st2">수</text>
	</g>
	<g style="clip-path:url(#SVGID_00000039134451277831978960000010587783703482005386_);">
		
			<text transform="matrix(1 0 0 -1 1457.9999 -126)" class="st1" style="fill:none;stroke:#000000;stroke-width:0.3601;stroke-miterlimit:10; font-size:150px;">수</text>
	</g>
	<g style="clip-path:url(#SVGID_00000039134451277831978960000010587783703482005386_);">
		<text transform="matrix(0.9982 0 0 1 192.8604 116.4321)" class="st1 st2"> </text>
	</g>
	<g style="clip-path:url(#SVGID_00000039134451277831978960000010587783703482005386_);">
		
			<text transform="matrix(1 0 0 -1 1607.9999 -126)" class="st1" style="fill:none;stroke:#000000;stroke-width:0.3601;stroke-miterlimit:10; font-size:150px;"> </text>
	</g>
	<g style="clip-path:url(#SVGID_00000039134451277831978960000010587783703482005386_);">
		<text transform="matrix(0.9982 0 0 1 201.8555 116.4321)" class="st1 st2">사</text>
	</g>
	<g style="clip-path:url(#SVGID_00000039134451277831978960000010587783703482005386_);">
		
			<text transform="matrix(1 0 0 -1 1682.9999 -126)" class="st1" style="fill:none;stroke:#000000;stroke-width:0.3601;stroke-miterlimit:10; font-size:150px;">사</text>
	</g>
	<g style="clip-path:url(#SVGID_00000039134451277831978960000010587783703482005386_);">
		<text transform="matrix(0.9982 0 0 1 219.8462 116.4321)" class="st1 st2"> </text>
	</g>
	<g style="clip-path:url(#SVGID_00000039134451277831978960000010587783703482005386_);">
		
			<text transform="matrix(1 0 0 -1 1832.9999 -126)" class="st1" style="fill:none;stroke:#000000;stroke-width:0.3601;stroke-miterlimit:10; font-size:150px;"> </text>
	</g>
	<g style="clip-path:url(#SVGID_00000039134451277831978960000010587783703482005386_);">
		<text transform="matrix(0.9982 0 0 1 228.8418 116.4321)" class="st1 st2"> </text>
	</g>
	<g style="clip-path:url(#SVGID_00000039134451277831978960000010587783703482005386_);">
		
			<text transform="matrix(1 0 0 -1 1907.9999 -126)" class="st1" style="fill:none;stroke:#000000;stroke-width:0.3601;stroke-miterlimit:10; font-size:150px;"> </text>
	</g>
	<g style="clip-path:url(#SVGID_00000039134451277831978960000010587783703482005386_);">
		<text transform="matrix(0.9982 0 0 1 237.8369 116.4321)" class="st1 st2"> </text>
	</g>
	<g style="clip-path:url(#SVGID_00000039134451277831978960000010587783703482005386_);">
		
			<text transform="matrix(1 0 0 -1 1982.9999 -126)" class="st1" style="fill:none;stroke:#000000;stroke-width:0.3601;stroke-miterlimit:10; font-size:150px;"> </text>
	</g>
	<g style="clip-path:url(#SVGID_00000039134451277831978960000010587783703482005386_);">
		<text transform="matrix(0.9982 0 0 1 246.832 116.4321)" class="st1 st2">보</text>
	</g>
	<g style="clip-path:url(#SVGID_00000039134451277831978960000010587783703482005386_);">
		
			<text transform="matrix(1 0 0 -1 2057.9998 -126)" class="st1" style="fill:none;stroke:#000000;stroke-width:0.3601;stroke-miterlimit:10; font-size:150px;">보</text>
	</g>
	<g style="clip-path:url(#SVGID_00000039134451277831978960000010587783703482005386_);">
		<text transform="matrix(0.9982 0 0 1 264.8232 116.4321)" class="st1 st2"> </text>
	</g>
	<g style="clip-path:url(#SVGID_00000039134451277831978960000010587783703482005386_);">
		
			<text transform="matrix(1 0 0 -1 2207.9998 -126)" class="st1" style="fill:none;stroke:#000000;stroke-width:0.3601;stroke-miterlimit:10; font-size:150px;"> </text>
	</g>
	<g style="clip-path:url(#SVGID_00000039134451277831978960000010587783703482005386_);">
		<text transform="matrix(0.9982 0 0 1 273.8184 116.4321)" class="st1 st2">고</text>
	</g>
	<g style="clip-path:url(#SVGID_00000039134451277831978960000010587783703482005386_);">
		
			<text transform="matrix(1 0 0 -1 2282.9998 -126)" class="st1" style="fill:none;stroke:#000000;stroke-width:0.3601;stroke-miterlimit:10; font-size:150px;">고</text>
	</g>
	<g style="clip-path:url(#SVGID_00000039134451277831978960000010587783703482005386_);">
		<text transform="matrix(0.9982 0 0 1 291.8091 116.4321)" class="st1 st2"> </text>
	</g>
	<g style="clip-path:url(#SVGID_00000039134451277831978960000010587783703482005386_);">
		
			<text transform="matrix(1 0 0 -1 2432.9998 -126)" class="st1" style="fill:none;stroke:#000000;stroke-width:0.3601;stroke-miterlimit:10; font-size:150px;"> </text>
	</g>
	<g style="clip-path:url(#SVGID_00000039134451277831978960000010587783703482005386_);">
		<text transform="matrix(0.9982 0 0 1 300.8047 116.4321)" class="st1 st2">서</text>
	</g>
	<g style="clip-path:url(#SVGID_00000039134451277831978960000010587783703482005386_);">
		
			<text transform="matrix(1 0 0 -1 2507.9998 -126)" class="st1" style="fill:none;stroke:#000000;stroke-width:0.3601;stroke-miterlimit:10; font-size:150px;">서</text>
	</g>
</g>
<text transform="matrix(0.9982 0 0 1 461.6416 99.7305)" class="st1 st3">사 </text>
<text transform="matrix(0.9982 0 0 1 478.1924 99.7305)"><tspan x="0" y="0" class="st1 st3">건</tspan><tspan x="10.94" y="0" class="st1 st3"> </tspan></text>
<text transform="matrix(0.9982 0 0 1 494.624 99.7305)" class="st1 st3">번 </text>
<text transform="matrix(0.9982 0 0 1 511.0557 99.7305)" class="st1 st3">호</text>
<text transform="matrix(0.9982 0 0 1 466.3184 128.2075)"><tspan x="0" y="0" class="st1 st3">2</tspan><tspan x="6.84" y="0" class="st1 st3">4</tspan><tspan x="13.78" y="0" class="st1 st3">11</tspan><tspan x="27.47" y="0" class="st1 st3">9</tspan><tspan x="34.41" y="0" class="st1 st3">93</tspan><tspan x="48.1" y="0" class="st1 st3">2</tspan></text>
<text transform="matrix(0.9982 0 0 1 73.8818 175.4292)" class="st1 st3">사 </text>
<text transform="matrix(0.9982 0 0 1 90.3135 175.4292)" class="st1 st3">건</text>
<text transform="matrix(0.9982 0 0 1 73.8818 210.7554)" class="st1 st3">개 </text>
<text transform="matrix(0.9982 0 0 1 90.3135 210.7554)" class="st1 st3">요</text>
<text transform="matrix(0.9982 0 0 1 136.3691 159.3281)"><tspan x="0" y="0" class="st1 st3">①</tspan><tspan x="10.94" y="0" class="st1 st3"> </tspan></text>
<text transform="matrix(0.9982 0 0 1 152.8008 159.3281)"><tspan x="0" y="0" class="st1 st3">사</tspan><tspan x="11.05" y="0" class="st1 st3 st4"> </tspan><tspan x="16.46" y="0" class="st1 st3"> </tspan></text>
<text transform="matrix(0.9982 0 0 1 174.7495 159.3281)"><tspan x="0" y="0" class="st1 st3">건</tspan><tspan x="11.05" y="0" class="st1 st3 st4"> </tspan><tspan x="16.46" y="0" class="st1 st3"> </tspan></text>
<text transform="matrix(0.9982 0 0 1 196.6982 159.3281)"><tspan x="0" y="0" class="st1 st3">경</tspan><tspan x="11.05" y="0" class="st1 st3 st4"> </tspan><tspan x="16.46" y="0" class="st1 st3"> </tspan></text>
<text transform="matrix(0.9982 0 0 1 218.647 159.3281)" class="st1 st3">과</text>
<text transform="matrix(0.9982 0 0 1 304.7627 159.3281)"><tspan x="0" y="0" class="st1 st3">김</tspan><tspan x="11.05" y="0" class="st1 st3">포</tspan><tspan x="22" y="0" class="st1 st3">공항 </tspan></text>
<text transform="matrix(0.9982 0 0 1 354.1768 159.3281)"><tspan x="0" y="0" class="st1 st3">근처</tspan><tspan x="22.11" y="0" class="st1 st3">에</tspan><tspan x="33.05" y="0" class="st1 st3">서 </tspan></text>
<text transform="matrix(0.9982 0 0 1 403.7109 159.3281)"><tspan x="0" y="0" class="st1 st3">유</tspan><tspan x="10.94" y="0" class="st1 st3">상신 </tspan></text>
<text transform="matrix(0.9982 0 0 1 442.0918 159.3281)" class="st1 st3">사망</text>
<text transform="matrix(0.9982 0 0 1 136.3691 193.0923)" class="st1 st3">② </text>
<text transform="matrix(0.9982 0 0 1 152.8008 193.0923)"><tspan x="0" y="0" class="st1 st3">신</tspan><tspan x="11.05" y="0" class="st1 st3 st4"> </tspan><tspan x="16.57" y="0" class="st1 st3 st4"> </tspan><tspan x="21.98" y="0" class="st1 st3 st4"> </tspan><tspan x="27.49" y="0" class="st1 st3"> </tspan></text>
<text transform="matrix(0.9982 0 0 1 185.7837 193.0923)"><tspan x="0" y="0" class="st1 st3">고</tspan><tspan x="10.94" y="0" class="st1 st3 st4">  </tspan><tspan x="21.98" y="0" class="st1 st3 st4"> </tspan><tspan x="27.38" y="0" class="st1 st3"> </tspan></text>
<text transform="matrix(0.9982 0 0 1 218.647 193.0923)" class="st1 st3">자</text>
<text transform="matrix(0.9982 0 0 1 257.627 193.0923)"><tspan x="0" y="0" class="st1 st3">임</tspan><tspan x="11.05" y="0" class="st1 st3 st4"> </tspan><tspan x="16.57" y="0" class="st1 st3"> </tspan></text>
<text transform="matrix(0.9982 0 0 1 279.5752 193.0923)"><tspan x="0" y="0" class="st1 st3">연</tspan><tspan x="11.05" y="0" class="st1 st3 st4"> </tspan><tspan x="16.57" y="0" class="st1 st3"> </tspan></text>
<text transform="matrix(0.9982 0 0 1 301.5244 193.0923)" class="st1 st3">서</text>
<text transform="matrix(0.9982 0 0 1 343.2627 193.0923)" class="st1 st3">③ </text>
<text transform="matrix(0.9982 0 0 1 359.6943 193.0923)"><tspan x="0" y="0" class="st1 st3">사</tspan><tspan x="11.05" y="0" class="st1 st3 st4"> </tspan><tspan x="16.57" y="0" class="st1 st3 st4"> </tspan><tspan x="21.98" y="0" class="st1 st3"> </tspan></text>
<text transform="matrix(0.9982 0 0 1 387.1602 193.0923)"><tspan x="0" y="0" class="st1 st3">망</tspan><tspan x="11.05" y="0" class="st1 st3 st4"> </tspan><tspan x="16.46" y="0" class="st1 st3 st4"> </tspan><tspan x="21.98" y="0" class="st1 st3"> </tspan></text>
<text transform="matrix(0.9982 0 0 1 414.625 193.0923)" class="st1 st3">자</text>
<text transform="matrix(0.9982 0 0 1 456.2441 193.0923)"><tspan x="0" y="0" class="st1 st3">유</tspan><tspan x="11.05" y="0" class="st1 st3 st4"> </tspan><tspan x="16.57" y="0" class="st1 st3"> </tspan></text>
<text transform="matrix(0.9982 0 0 1 478.1924 193.0923)"><tspan x="0" y="0" class="st1 st3">상</tspan><tspan x="11.05" y="0" class="st1 st3 st4"> </tspan><tspan x="16.57" y="0" class="st1 st3"> </tspan></text>
<text transform="matrix(0.9982 0 0 1 500.1416 193.0923)" class="st1 st3">신</text>
<text transform="matrix(0.9982 0 0 1 136.3691 226.8564)" class="st1 st3">④ </text>
<text transform="matrix(0.9982 0 0 1 152.8008 226.8564)"><tspan x="0" y="0" class="st1 st3">발</tspan><tspan x="11.05" y="0" class="st1 st3 st4"> </tspan><tspan x="16.57" y="0" class="st1 st3 st4"> </tspan><tspan x="21.98" y="0" class="st1 st3 st4"> </tspan><tspan x="27.49" y="0" class="st1 st3"> </tspan></text>
<text transform="matrix(0.9982 0 0 1 185.7837 226.8564)"><tspan x="0" y="0" class="st1 st3">생</tspan><tspan x="10.94" y="0" class="st1 st3 st4">  </tspan><tspan x="21.98" y="0" class="st1 st3 st4"> </tspan><tspan x="27.38" y="0" class="st1 st3"> </tspan></text>
<text transform="matrix(0.9982 0 0 1 218.647 226.8564)" class="st1 st3">일</text>
<text transform="matrix(0.9982 0 0 1 256.3076 226.8564)"><tspan x="0" y="0" class="st1 st3">2</tspan><tspan x="6.94" y="0" class="st1 st3">02</tspan><tspan x="20.63" y="0" class="st1 st3">4</tspan><tspan x="27.57" y="0" class="st1 st3">.</tspan><tspan x="30.7" y="0" class="st1 st3">1</tspan><tspan x="37.64" y="0" class="st1 st3">1</tspan><tspan x="44.48" y="0" class="st1 st3">.</tspan><tspan x="47.72" y="0" class="st1 st3">1</tspan><tspan x="54.56" y="0" class="st1 st3">2</tspan></text>
<text transform="matrix(0.9982 0 0 1 343.2627 226.8564)"><tspan x="0" y="0" class="st1 st3">⑤</tspan><tspan x="10.94" y="0" class="st1 st3"> </tspan></text>
<text transform="matrix(0.9982 0 0 1 359.6943 226.8564)" class="st1 st3">사 </text>
<text transform="matrix(0.9982 0 0 1 376.125 226.8564)"><tspan x="0" y="0" class="st1 st3">건</tspan><tspan x="11.05" y="0" class="st1 st3 st4"> </tspan><tspan x="16.57" y="0" class="st1 st3"> </tspan></text>
<text transform="matrix(0.9982 0 0 1 398.0742 226.8564)" class="st1 st3">장 </text>
<text transform="matrix(0.9982 0 0 1 414.625 226.8564)" class="st1 st3">소</text>
<text transform="matrix(0.9982 0 0 1 447.9688 226.8564)"><tspan x="0" y="0" class="st1 st3">김포</tspan><tspan x="22.11" y="0" class="st1 st3">공</tspan><tspan x="33.05" y="0" class="st1 st3">항 </tspan></text>
<text transform="matrix(0.9982 0 0 1 497.5029 226.8564)"><tspan x="0" y="0" class="st1 st3">근</tspan><tspan x="10.94" y="0" class="st1 st3">처</tspan></text>
<text transform="matrix(0.9982 0 0 1 54.6914 285.1328)"><tspan x="0" y="0" class="st1 st3">발</tspan><tspan x="10.94" y="0" class="st1 st3">견 </tspan></text>
<text transform="matrix(0.9982 0 0 1 82.1572 285.1328)"><tspan x="0" y="0" class="st1 st3">및</tspan><tspan x="10.94" y="0" class="st1 st3"> </tspan></text>
<text transform="matrix(0.9982 0 0 1 98.5889 285.1328)" class="st1 st3">정보</text>
<text transform="matrix(0.9982 0 0 1 166.2339 258.6982)"><tspan x="0" y="0" class="st1 st3">김</tspan><tspan x="11.05" y="0" class="st1 st3">포</tspan><tspan x="22" y="0" class="st1 st3">공항 </tspan></text>
<text transform="matrix(0.9982 0 0 1 215.6484 258.6982)" class="st1 st3">근처 </text>
<text transform="matrix(0.9982 0 0 1 243.1143 258.6982)"><tspan x="0" y="0" class="st1 st3">한적</tspan><tspan x="22.11" y="0" class="st1 st3">한</tspan><tspan x="33.05" y="0" class="st1 st3"> </tspan></text>
<text transform="matrix(0.9982 0 0 1 281.6143 258.6982)"><tspan x="0" y="0" class="st1 st3">길</tspan><tspan x="11.05" y="0" class="st1 st3">에</tspan><tspan x="22" y="0" class="st1 st3">서 </tspan></text>
<text transform="matrix(0.9982 0 0 1 320.1143 258.6982)"><tspan x="0" y="0" class="st1 st3">피</tspan><tspan x="10.94" y="0" class="st1 st3">를 </tspan></text>
<text transform="matrix(0.9982 0 0 1 347.5801 258.6982)"><tspan x="0" y="0" class="st1 st3">토</tspan><tspan x="10.94" y="0" class="st1 st3">한 </tspan></text>
<text transform="matrix(0.9982 0 0 1 375.0459 258.6982)"><tspan x="0" y="0" class="st1 st3">상</tspan><tspan x="10.94" y="0" class="st1 st3">태에</tspan><tspan x="33.05" y="0" class="st1 st3">서</tspan><tspan x="44" y="0" class="st1 st3"> </tspan></text>
<text transform="matrix(0.9982 0 0 1 424.4609 258.6982)"><tspan x="0" y="0" class="st1 st3">사</tspan><tspan x="11.05" y="0" class="st1 st3">체</tspan><tspan x="22" y="0" class="st1 st3">로 </tspan></text>
<text transform="matrix(0.9982 0 0 1 462.9609 258.6982)"><tspan x="0" y="0" class="st1 st3">발</tspan><tspan x="10.94" y="0" class="st1 st3">견됨</tspan></text>
<text transform="matrix(0.9982 0 0 1 495.9434 258.6982)" class="st1 st3">.</text>
<text transform="matrix(0.9982 0 0 1 190.9414 276.2412)"><tspan x="0" y="0" class="st1 st3">현</tspan><tspan x="11.05" y="0" class="st1 st3">장</tspan><tspan x="22" y="0" class="st1 st3">에 </tspan></text>
<text transform="matrix(0.9982 0 0 1 229.4414 276.2412)"><tspan x="0" y="0" class="st1 st3">유</tspan><tspan x="10.94" y="0" class="st1 st3">상신</tspan><tspan x="33.05" y="0" class="st1 st3">의</tspan><tspan x="44" y="0" class="st1 st3"> </tspan></text>
<text transform="matrix(0.9982 0 0 1 278.8555 276.2412)"><tspan x="0" y="0" class="st1 st3">캐</tspan><tspan x="11.05" y="0" class="st1 st3">리</tspan><tspan x="22" y="0" class="st1 st3">어 </tspan></text>
<text transform="matrix(0.9982 0 0 1 317.3555 276.2412)"><tspan x="0" y="0" class="st1 st3">열</tspan><tspan x="10.94" y="0" class="st1 st3">려 </tspan></text>
<text transform="matrix(0.9982 0 0 1 344.8213 276.2412)"><tspan x="0" y="0" class="st1 st3">있</tspan><tspan x="10.94" y="0" class="st1 st3">었고</tspan></text>
<text transform="matrix(0.9982 0 0 1 377.8047 276.2412)"><tspan x="0" y="0" class="st1 st3">,</tspan><tspan x="3.13" y="0" class="st1 st3"> </tspan></text>
<text transform="matrix(0.9982 0 0 1 386.4404 276.2412)"><tspan x="0" y="0" class="st1 st3">짐</tspan><tspan x="11.05" y="0" class="st1 st3">이</tspan><tspan x="22" y="0" class="st1 st3"> </tspan></text>
<text transform="matrix(0.9982 0 0 1 413.9062 276.2412)"><tspan x="0" y="0" class="st1 st3">흩</tspan><tspan x="11.05" y="0" class="st1 st3">어</tspan><tspan x="22" y="0" class="st1 st3">져 </tspan></text>
<text transform="matrix(0.9982 0 0 1 452.4062 276.2412)"><tspan x="0" y="0" class="st1 st3">있</tspan><tspan x="10.94" y="0" class="st1 st3">음</tspan></text>
<text transform="matrix(0.9982 0 0 1 215.6484 293.9043)"><tspan x="0" y="0" class="st1 st3">자세</tspan><tspan x="22.11" y="0" class="st1 st3">한</tspan><tspan x="33.05" y="0" class="st1 st3"> </tspan></text>
<text transform="matrix(0.9982 0 0 1 254.1484 293.9043)"><tspan x="0" y="0" class="st1 st3">사</tspan><tspan x="11.05" y="0" class="st1 st3">인</tspan><tspan x="22" y="0" class="st1 st3"> </tspan></text>
<text transform="matrix(0.9982 0 0 1 281.6143 293.9043)"><tspan x="0" y="0" class="st1 st3">해</tspan><tspan x="11.05" y="0" class="st1 st3">부</tspan><tspan x="22" y="0" class="st1 st3"> </tspan></text>
<text transform="matrix(0.9982 0 0 1 309.0801 293.9043)" class="st1 st3">및 </text>
<text transform="matrix(0.9982 0 0 1 325.5117 293.9043)" class="st1 st3">독소 </text>
<text transform="matrix(0.9982 0 0 1 352.9775 293.9043)" class="st1 st3">검사 </text>
<text transform="matrix(0.9982 0 0 1 380.4434 293.9043)" class="st1 st3">결과 </text>
<text transform="matrix(0.9982 0 0 1 407.9092 293.9043)" class="st1 st3">대기 </text>
<text transform="matrix(0.9982 0 0 1 435.375 293.9043)" class="st1 st3">중</text>
<text transform="matrix(0.9982 0 0 1 446.4092 293.9043)" class="st1 st3">.</text>
<text transform="matrix(0.9982 0 0 1 189.8618 311.5674)"><tspan x="0" y="0" class="st1 st3">짐</tspan><tspan x="10.94" y="0" class="st1 st3">을 </tspan></text>
<text transform="matrix(0.9982 0 0 1 217.3276 311.5674)"><tspan x="0" y="0" class="st1 st3">뒤</tspan><tspan x="10.94" y="0" class="st1 st3">진 </tspan></text>
<text transform="matrix(0.9982 0 0 1 244.7935 311.5674)"><tspan x="0" y="0" class="st1 st3">흔</tspan><tspan x="10.94" y="0" class="st1 st3">적이 </tspan></text>
<text transform="matrix(0.9982 0 0 1 283.1733 311.5674)" class="st1 st3">있는 </text>
<text transform="matrix(0.9982 0 0 1 310.6396 311.5674)"><tspan x="0" y="0" class="st1 st3">것으</tspan><tspan x="22.11" y="0" class="st1 st3">로</tspan><tspan x="33.05" y="0" class="st1 st3"> </tspan></text>
<text transform="matrix(0.9982 0 0 1 349.1396 311.5674)"><tspan x="0" y="0" class="st1 st3">보</tspan><tspan x="11.05" y="0" class="st1 st3">아</tspan><tspan x="22" y="0" class="st1 st3"> </tspan></text>
<text transform="matrix(0.9982 0 0 1 376.6055 311.5674)"><tspan x="0" y="0" class="st1 st3">타</tspan><tspan x="11.05" y="0" class="st1 st3">살</tspan><tspan x="22" y="0" class="st1 st3">일 </tspan></text>
<text transform="matrix(0.9982 0 0 1 415.1055 311.5674)"><tspan x="0" y="0" class="st1 st3">가</tspan><tspan x="10.94" y="0" class="st1 st3">능성 </tspan></text>
<text transform="matrix(0.9982 0 0 1 453.4854 311.5674)" class="st1 st3">존재</text>
<text transform="matrix(0.9982 0 0 1 62.8477 370.0835)" class="st1 st3">조사 </text>
<text transform="matrix(0.9982 0 0 1 90.3135 370.0835)" class="st1 st3">과정</text>
<text transform="matrix(0.9982 0 0 1 181.1064 343.6489)" class="st1 st3">주변 </text>
<text transform="matrix(0.9982 0 0 1 208.5723 343.6489)"><tspan x="0" y="0" class="st1 st3">CC</tspan><tspan x="15.59" y="0" class="st1 st3">T</tspan><tspan x="24.33" y="0" class="st1 st3">V</tspan><tspan x="32.61" y="0" class="st1 st3"> </tspan></text>
<text transform="matrix(0.9982 0 0 1 244.7935 343.6489)"><tspan x="0" y="0" class="st1 st3">영</tspan><tspan x="10.94" y="0" class="st1 st3">상 </tspan></text>
<text transform="matrix(0.9982 0 0 1 272.2593 343.6489)"><tspan x="0" y="0" class="st1 st3">및</tspan><tspan x="10.94" y="0" class="st1 st3"> </tspan></text>
<text transform="matrix(0.9982 0 0 1 288.6904 343.6489)"><tspan x="0" y="0" class="st1 st3">목</tspan><tspan x="11.05" y="0" class="st1 st3">격</tspan><tspan x="22" y="0" class="st1 st3">자 </tspan></text>
<text transform="matrix(0.9982 0 0 1 327.1904 343.6489)"><tspan x="0" y="0" class="st1 st3">진</tspan><tspan x="10.94" y="0" class="st1 st3">술을 </tspan></text>
<text transform="matrix(0.9982 0 0 1 365.5713 343.6489)"><tspan x="0" y="0" class="st1 st3">토대</tspan><tspan x="22.11" y="0" class="st1 st3">로</tspan><tspan x="33.05" y="0" class="st1 st3"> </tspan></text>
<text transform="matrix(0.9982 0 0 1 404.0713 343.6489)"><tspan x="0" y="0" class="st1 st3">사</tspan><tspan x="11.05" y="0" class="st1 st3">건</tspan><tspan x="22" y="0" class="st1 st3"> </tspan></text>
<text transform="matrix(0.9982 0 0 1 431.5371 343.6489)"><tspan x="0" y="0" class="st1 st3">재</tspan><tspan x="11.05" y="0" class="st1 st3">구</tspan><tspan x="22" y="0" class="st1 st3">성 </tspan></text>
<text transform="matrix(0.9982 0 0 1 470.0371 343.6489)" class="st1 st3">중</text>
<text transform="matrix(0.9982 0 0 1 480.9512 343.6489)" class="st1 st3">.</text>
<text transform="matrix(0.9982 0 0 1 240.3555 361.312)"><tspan x="0" y="0" class="st1 st3">유상</tspan><tspan x="22.11" y="0" class="st1 st3">신</tspan><tspan x="33.05" y="0" class="st1 st3">의 </tspan></text>
<text transform="matrix(0.9982 0 0 1 289.8901 361.312)"><tspan x="0" y="0" class="st1 st3">가</tspan><tspan x="10.94" y="0" class="st1 st3">족과 </tspan></text>
<text transform="matrix(0.9982 0 0 1 328.2705 361.312)" class="st1 st3">주변 </text>
<text transform="matrix(0.9982 0 0 1 355.7363 361.312)" class="st1 st3">인맥 </text>
<text transform="matrix(0.9982 0 0 1 383.2021 361.312)" class="st1 st3">조사 </text>
<text transform="matrix(0.9982 0 0 1 410.668 361.312)" class="st1 st3">중</text>
<text transform="matrix(0.9982 0 0 1 421.7021 361.312)" class="st1 st3">.</text>
<text transform="matrix(0.9982 0 0 1 207.4927 378.9751)"><tspan x="0" y="0" class="st1 st3">가</tspan><tspan x="10.94" y="0" class="st1 st3">족 </tspan></text>
<text transform="matrix(0.9982 0 0 1 234.9585 378.9751)"><tspan x="0" y="0" class="st1 st3">및</tspan><tspan x="10.94" y="0" class="st1 st3"> </tspan></text>
<text transform="matrix(0.9982 0 0 1 251.3896 378.9751)"><tspan x="0" y="0" class="st1 st3">주</tspan><tspan x="11.05" y="0" class="st1 st3">변</tspan><tspan x="22" y="0" class="st1 st3">인들</tspan><tspan x="44.11" y="0" class="st1 st3">의</tspan><tspan x="55.05" y="0" class="st1 st3"> </tspan></text>
<text transform="matrix(0.9982 0 0 1 311.8389 378.9751)"><tspan x="0" y="0" class="st1 st3">진</tspan><tspan x="11.05" y="0" class="st1 st3">술</tspan><tspan x="22" y="0" class="st1 st3">을 </tspan></text>
<text transform="matrix(0.9982 0 0 1 350.3389 378.9751)"><tspan x="0" y="0" class="st1 st3">통</tspan><tspan x="10.94" y="0" class="st1 st3">해 </tspan></text>
<text transform="matrix(0.9982 0 0 1 377.8047 378.9751)"><tspan x="0" y="0" class="st1 st3">동</tspan><tspan x="10.94" y="0" class="st1 st3">기 </tspan></text>
<text transform="matrix(0.9982 0 0 1 405.2705 378.9751)"><tspan x="0" y="0" class="st1 st3">파</tspan><tspan x="10.94" y="0" class="st1 st3">악 </tspan></text>
<text transform="matrix(0.9982 0 0 1 432.7363 378.9751)"><tspan x="0" y="0" class="st1 st3">시</tspan><tspan x="10.94" y="0" class="st1 st3">도</tspan></text>
<text transform="matrix(0.9982 0 0 1 454.6846 378.9751)" class="st1 st3">.</text>
<text transform="matrix(0.9982 0 0 1 201.9756 396.5181)"><tspan x="0" y="0" class="st1 st3">타</tspan><tspan x="10.94" y="0" class="st1 st3">인 </tspan></text>
<text transform="matrix(0.9982 0 0 1 229.4414 396.5181)"><tspan x="0" y="0" class="st1 st3">범</tspan><tspan x="10.94" y="0" class="st1 st3">행 </tspan></text>
<text transform="matrix(0.9982 0 0 1 256.9072 396.5181)"><tspan x="0" y="0" class="st1 st3">가</tspan><tspan x="10.94" y="0" class="st1 st3">능성</tspan><tspan x="33.05" y="0" class="st1 st3">을</tspan><tspan x="44" y="0" class="st1 st3"> </tspan></text>
<text transform="matrix(0.9982 0 0 1 306.3213 396.5181)"><tspan x="0" y="0" class="st1 st3">검</tspan><tspan x="11.05" y="0" class="st1 st3">토</tspan><tspan x="22" y="0" class="st1 st3">하기 </tspan></text>
<text transform="matrix(0.9982 0 0 1 355.7363 396.5181)" class="st1 st3">위한 </text>
<text transform="matrix(0.9982 0 0 1 383.2021 396.5181)" class="st1 st3">추가 </text>
<text transform="matrix(0.9982 0 0 1 410.668 396.5181)" class="st1 st3">조사 </text>
<text transform="matrix(0.9982 0 0 1 438.1338 396.5181)" class="st1 st3">진행</text>
<text transform="matrix(0.9982 0 0 1 460.2021 396.5181)" class="st1 st3">.</text>
<text transform="matrix(0.9982 0 0 1 74.4814 469.333)" class="st1 st3">상기 </text>
<text transform="matrix(0.9982 0 0 1 101.9473 469.333)" class="st1 st3">수사 </text>
<text transform="matrix(0.9982 0 0 1 129.4131 469.333)"><tspan x="0" y="0" class="st1 st3">내용</tspan><tspan x="22.11" y="0" class="st1 st3">을</tspan><tspan x="33.05" y="0" class="st1 st3"> </tspan></text>
<text transform="matrix(0.9982 0 0 1 167.9131 469.333)"><tspan x="0" y="0" class="st1 st3">보</tspan><tspan x="11.05" y="0" class="st1 st3">고</tspan><tspan x="22" y="0" class="st1 st3">합니다</tspan></text>
<text transform="matrix(0.9982 0 0 1 208.5723 519.9189)"><tspan x="0" y="0" class="st1 st3">2</tspan><tspan x="6.94" y="0" class="st1 st3">02</tspan><tspan x="20.63" y="0" class="st1 st3">4</tspan></text>
<text transform="matrix(0.9982 0 0 1 234.2388 519.9189)"><tspan x="0" y="0" class="st1 st3">년</tspan><tspan x="10.94" y="0" class="st1 st3 st4">  </tspan><tspan x="21.98" y="0" class="st1 st3 st4"> </tspan><tspan x="27.38" y="0" class="st1 st3 st4">  </tspan><tspan x="38.41" y="0" class="st1 st3 st4"> </tspan><tspan x="43.82" y="0" class="st1 st3"> </tspan></text>
<text transform="matrix(0.9982 0 0 1 283.5332 519.9189)"><tspan x="0" y="0" class="st1 st3">1</tspan><tspan x="6.84" y="0" class="st1 st3">1</tspan></text>
<text transform="matrix(0.9982 0 0 1 296.3667 519.9189)"><tspan x="0" y="0" class="st1 st3">월</tspan><tspan x="10.94" y="0" class="st1 st3 st4">  </tspan><tspan x="21.98" y="0" class="st1 st3 st4"> </tspan><tspan x="27.38" y="0" class="st1 st3 st4">  </tspan><tspan x="38.41" y="0" class="st1 st3 st4"> </tspan><tspan x="43.82" y="0" class="st1 st3"> </tspan></text>
<text transform="matrix(0.9982 0 0 1 345.6611 519.9189)"><tspan x="0" y="0" class="st1 st3">1</tspan><tspan x="6.84" y="0" class="st1 st3">2</tspan></text>
<text transform="matrix(0.9982 0 0 1 358.4941 519.9189)" class="st1 st3">일</text>
<text transform="matrix(0.9982 0 0 1 356.4551 552.9629)"><tspan x="0" y="0" class="st1 st3">담</tspan><tspan x="10.94" y="0" class="st1 st3">당 </tspan></text>
<text transform="matrix(0.9982 0 0 1 383.9219 552.9629)"><tspan x="0" y="0" class="st1 st3">수</tspan><tspan x="10.94" y="0" class="st1 st3">사관</tspan><tspan x="33.05" y="0" class="st1 st3 st4"> </tspan><tspan x="38.46" y="0" class="st1 st3 st4">  </tspan><tspan x="49.49" y="0" class="st1 st3"> </tspan></text>
<text transform="matrix(0.9982 0 0 1 438.7334 552.9629)" class="st1 st3">이 </text>
<text transform="matrix(0.9982 0 0 1 455.2842 552.9629)"><tspan x="0" y="0" class="st1 st3">한</tspan><tspan x="10.94" y="0" class="st1 st3"> </tspan></text>
<text transform="matrix(0.9982 0 0 1 471.7158 552.9629)"><tspan x="0" y="0" class="st1 st3">웅</tspan><tspan x="11.05" y="0" class="st1 st3 st4"> </tspan><tspan x="16.46" y="0" class="st1 st3 st4">  </tspan><tspan x="27.49" y="0" class="st1 st3 st4"> </tspan><tspan x="32.9" y="0" class="st1 st3 st4">  </tspan><tspan x="43.93" y="0" class="st1 st3 st4"> </tspan><tspan x="49.34" y="0" class="st1 st3"> </tspan></text>
<text transform="matrix(0.9982 0 0 1 234.1191 619.0488)" class="st1 st3">한</text>
<text transform="matrix(1 0 0 -1 1951.9999 -4309)" class="st1" style="fill:none;stroke:#000000;stroke-width:0.2209;stroke-miterlimit:10; font-size:92px;">한</text>
<text transform="matrix(0.9982 0 0 1 245.1533 619.0488)" class="st1 st3"> </text>
<text transform="matrix(1 0 0 -1 2043.9999 -4309)" class="st1" style="fill:none;stroke:#000000;stroke-width:0.2209;stroke-miterlimit:10; font-size:92px;"> </text>
<text transform="matrix(0.9982 0 0 1 250.5503 619.0488)" class="st1 st3">국</text>
<text transform="matrix(1 0 0 -1 2088.9998 -4309)" class="st1" style="fill:none;stroke:#000000;stroke-width:0.2209;stroke-miterlimit:10; font-size:92px;">국</text>
<text transform="matrix(0.9982 0 0 1 261.5845 619.0488)" class="st1 st3"> </text>
<text transform="matrix(1 0 0 -1 2180.9998 -4309)" class="st1" style="fill:none;stroke:#000000;stroke-width:0.2209;stroke-miterlimit:10; font-size:92px;"> </text>
<text transform="matrix(0.9982 0 0 1 267.1016 619.0488)" class="st1 st3">지</text>
<text transform="matrix(1 0 0 -1 2226.9998 -4309)" class="st1" style="fill:none;stroke:#000000;stroke-width:0.2209;stroke-miterlimit:10; font-size:92px;">지</text>
<text transform="matrix(0.9982 0 0 1 278.0156 619.0488)" class="st1 st3"> </text>
<text transform="matrix(1 0 0 -1 2317.9978 -4309)" class="st1" style="fill:none;stroke:#000000;stroke-width:0.2209;stroke-miterlimit:10; font-size:92px;"> </text>
<text transform="matrix(0.9982 0 0 1 283.5332 619.0488)" class="st1 st3">방</text>
<text transform="matrix(1 0 0 -1 2363.9998 -4309)" class="st1" style="fill:none;stroke:#000000;stroke-width:0.2209;stroke-miterlimit:10; font-size:92px;">방</text>
<text transform="matrix(0.9982 0 0 1 294.5674 619.0488)" class="st1 st3"> </text>
<text transform="matrix(1 0 0 -1 2455.9998 -4309)" class="st1" style="fill:none;stroke:#000000;stroke-width:0.2209;stroke-miterlimit:10; font-size:92px;"> </text>
<text transform="matrix(0.9982 0 0 1 299.9648 619.0488)" class="st1 st3">경</text>
<text transform="matrix(1 0 0 -1 2500.9998 -4309)" class="st1" style="fill:none;stroke:#000000;stroke-width:0.2209;stroke-miterlimit:10; font-size:92px;">경</text>
<text transform="matrix(0.9982 0 0 1 310.999 619.0488)" class="st1 st3"> </text>
<text transform="matrix(1 0 0 -1 2592.9998 -4309)" class="st1" style="fill:none;stroke:#000000;stroke-width:0.2209;stroke-miterlimit:10; font-size:92px;"> </text>
<text transform="matrix(0.9982 0 0 1 316.5166 619.0488)" class="st1 st3">찰</text>
<text transform="matrix(1 0 0 -1 2638.9998 -4309)" class="st1" style="fill:none;stroke:#000000;stroke-width:0.2209;stroke-miterlimit:10; font-size:92px;">찰</text>
<text transform="matrix(0.9982 0 0 1 327.4307 619.0488)" class="st1 st3"> </text>
<text transform="matrix(1 0 0 -1 2729.9978 -4309)" class="st1" style="fill:none;stroke:#000000;stroke-width:0.2209;stroke-miterlimit:10; font-size:92px;"> </text>
<text transform="matrix(0.9982 0 0 1 332.9473 619.0488)" class="st1 st3">청</text>
<text transform="matrix(1 0 0 -1 2775.9998 -4309)" class="st1" style="fill:none;stroke:#000000;stroke-width:0.2209;stroke-miterlimit:10; font-size:92px;">청</text>
<line class="st5" x1="44.02" y1="81.59" x2="44.02" y2="670.84"/>
<line class="st6" x1="131.21" y1="138.66" x2="131.21" y2="409.86"/>
<line class="st6" x1="234.72" y1="138.66" x2="234.72" y2="239.83"/>
<line class="st6" x1="335.47" y1="172.3" x2="335.47" y2="239.83"/>
<line class="st6" x1="433.33" y1="172.3" x2="433.33" y2="239.83"/>
<line class="st6" x1="449.65" y1="81.59" x2="449.65" y2="138.66"/>
<line class="st5" x1="534.08" y1="81.59" x2="534.08" y2="670.84"/>
<line class="st5" x1="43.54" y1="81.59" x2="534.68" y2="81.59"/>
<line class="st6" x1="449.53" y1="110.18" x2="534.68" y2="110.18"/>
<line class="st6" x1="43.54" y1="138.66" x2="534.68" y2="138.66"/>
<line class="st6" x1="131.09" y1="172.3" x2="534.68" y2="172.3"/>
<line class="st6" x1="131.09" y1="206.07" x2="534.68" y2="206.07"/>
<line class="st6" x1="43.54" y1="239.83" x2="534.68" y2="239.83"/>
<line class="st6" x1="43.54" y1="322.62" x2="534.68" y2="322.62"/>
<line class="st6" x1="43.54" y1="409.86" x2="534.68" y2="409.86"/>
<line class="st5" x1="43.54" y1="670.84" x2="534.68" y2="670.84"/>
<line class="st5" x1="534.08" y1="81.59" x2="534.08" y2="670.84"/>
<line class="st5" x1="44.02" y1="81.59" x2="44.02" y2="670.84"/>
<line class="st5" x1="43.54" y1="670.84" x2="534.68" y2="670.84"/>
<line class="st5" x1="43.54" y1="81.59" x2="534.68" y2="81.59"/>
<text transform="matrix(0.9982 0 0 1 42.5781 688.1396)"><tspan x="0" y="0" class="st1 st3">2</tspan><tspan x="6.84" y="0" class="st1 st3">4</tspan><tspan x="13.78" y="0" class="st1 st3">11</tspan><tspan x="27.47" y="0" class="st1 st3">9</tspan><tspan x="34.41" y="0" class="st1 st3">93</tspan><tspan x="48.1" y="0" class="st1 st3">2</tspan></text>
<text transform="matrix(0.9982 0 0 1 42.5781 705.8027)"><tspan x="0" y="0" class="st1 st3">2</tspan><tspan x="6.84" y="0" class="st1 st3">4</tspan><tspan x="13.78" y="0" class="st1 st3">.</tspan><tspan x="16.91" y="0" class="st1 st3">1</tspan><tspan x="23.86" y="0" class="st1 st3">1</tspan><tspan x="30.7" y="0" class="st1 st3">.</tspan><tspan x="33.94" y="0" class="st1 st3">1</tspan><tspan x="40.78" y="0" class="st1 st3">2</tspan><tspan x="47.72" y="0" class="st1 st3">.</tspan></text>
<text transform="matrix(0.9982 0 0 1 90.5532 705.8027)"><tspan x="0" y="0" class="st1 st3">승</tspan><tspan x="11.05" y="0" class="st1 st3">인</tspan><tspan x="22" y="0" class="st1 st3"> </tspan></text>
</svg>
