<?xml version="1.0" encoding="utf-8"?>
<!-- Generator: Adobe Illustrator 27.9.0, SVG Export Plug-In . SVG Version: 6.00 Build 0)  -->
<svg version="1.1" id="레이어_1" xmlns="http://www.w3.org/2000/svg" xmlns:xlink="http://www.w3.org/1999/xlink" x="0px"
	 y="0px" viewBox="0 0 595 843" style="enable-background:new 0 0 595 843;" xml:space="preserve">
<style type="text/css">
	.st0{clip-path:url(#SVGID_00000152956924085734528270000003686634898236156343_);}
	.st1{font-family:'AdobeMyungjoStd-Medium-KSCpc-EUC-H';}
	.st2{font-size:18.0236px;}
	.st3{font-size:11.0544px;}
	.st4{letter-spacing:1;}
	.st5{fill:none;stroke:#000000;stroke-width:1.079;stroke-miterlimit:10;}
	.st6{fill:none;stroke:#000000;stroke-width:0.36;stroke-miterlimit:10;}
</style>
<g>
	<defs>
		<rect id="SVGID_1_" x="44.02" y="81.59" width="405.63" height="57.07"/>
	</defs>
	<clipPath id="SVGID_00000066495210222467311200000008112398697130285220_">
		<use xlink:href="#SVGID_1_"  style="overflow:visible;"/>
	</clipPath>
	<g style="clip-path:url(#SVGID_00000066495210222467311200000008112398697130285220_);">
		<text transform="matrix(0.9982 0 0 1 174.8696 116.4321)" class="st1 st2">수</text>
	</g>
	<g style="clip-path:url(#SVGID_00000066495210222467311200000008112398697130285220_);">
		
			<text transform="matrix(1 0 0 -1 1457.9999 -126)" class="st1" style="fill:none;stroke:#000000;stroke-width:0.3601;stroke-miterlimit:10; font-size:150px;">수</text>
	</g>
	<g style="clip-path:url(#SVGID_00000066495210222467311200000008112398697130285220_);">
		<text transform="matrix(0.9982 0 0 1 192.8604 116.4321)" class="st1 st2"> </text>
	</g>
	<g style="clip-path:url(#SVGID_00000066495210222467311200000008112398697130285220_);">
		
			<text transform="matrix(1 0 0 -1 1607.9999 -126)" class="st1" style="fill:none;stroke:#000000;stroke-width:0.3601;stroke-miterlimit:10; font-size:150px;"> </text>
	</g>
	<g style="clip-path:url(#SVGID_00000066495210222467311200000008112398697130285220_);">
		<text transform="matrix(0.9982 0 0 1 201.8555 116.4321)" class="st1 st2">사</text>
	</g>
	<g style="clip-path:url(#SVGID_00000066495210222467311200000008112398697130285220_);">
		
			<text transform="matrix(1 0 0 -1 1682.9999 -126)" class="st1" style="fill:none;stroke:#000000;stroke-width:0.3601;stroke-miterlimit:10; font-size:150px;">사</text>
	</g>
	<g style="clip-path:url(#SVGID_00000066495210222467311200000008112398697130285220_);">
		<text transform="matrix(0.9982 0 0 1 219.8462 116.4321)" class="st1 st2"> </text>
	</g>
	<g style="clip-path:url(#SVGID_00000066495210222467311200000008112398697130285220_);">
		
			<text transform="matrix(1 0 0 -1 1832.9999 -126)" class="st1" style="fill:none;stroke:#000000;stroke-width:0.3601;stroke-miterlimit:10; font-size:150px;"> </text>
	</g>
	<g style="clip-path:url(#SVGID_00000066495210222467311200000008112398697130285220_);">
		<text transform="matrix(0.9982 0 0 1 228.8418 116.4321)" class="st1 st2"> </text>
	</g>
	<g style="clip-path:url(#SVGID_00000066495210222467311200000008112398697130285220_);">
		
			<text transform="matrix(1 0 0 -1 1907.9999 -126)" class="st1" style="fill:none;stroke:#000000;stroke-width:0.3601;stroke-miterlimit:10; font-size:150px;"> </text>
	</g>
	<g style="clip-path:url(#SVGID_00000066495210222467311200000008112398697130285220_);">
		<text transform="matrix(0.9982 0 0 1 237.8369 116.4321)" class="st1 st2"> </text>
	</g>
	<g style="clip-path:url(#SVGID_00000066495210222467311200000008112398697130285220_);">
		
			<text transform="matrix(1 0 0 -1 1982.9999 -126)" class="st1" style="fill:none;stroke:#000000;stroke-width:0.3601;stroke-miterlimit:10; font-size:150px;"> </text>
	</g>
	<g style="clip-path:url(#SVGID_00000066495210222467311200000008112398697130285220_);">
		<text transform="matrix(0.9982 0 0 1 246.832 116.4321)" class="st1 st2">보</text>
	</g>
	<g style="clip-path:url(#SVGID_00000066495210222467311200000008112398697130285220_);">
		
			<text transform="matrix(1 0 0 -1 2057.9998 -126)" class="st1" style="fill:none;stroke:#000000;stroke-width:0.3601;stroke-miterlimit:10; font-size:150px;">보</text>
	</g>
	<g style="clip-path:url(#SVGID_00000066495210222467311200000008112398697130285220_);">
		<text transform="matrix(0.9982 0 0 1 264.8232 116.4321)" class="st1 st2"> </text>
	</g>
	<g style="clip-path:url(#SVGID_00000066495210222467311200000008112398697130285220_);">
		
			<text transform="matrix(1 0 0 -1 2207.9998 -126)" class="st1" style="fill:none;stroke:#000000;stroke-width:0.3601;stroke-miterlimit:10; font-size:150px;"> </text>
	</g>
	<g style="clip-path:url(#SVGID_00000066495210222467311200000008112398697130285220_);">
		<text transform="matrix(0.9982 0 0 1 273.8184 116.4321)" class="st1 st2">고</text>
	</g>
	<g style="clip-path:url(#SVGID_00000066495210222467311200000008112398697130285220_);">
		
			<text transform="matrix(1 0 0 -1 2282.9998 -126)" class="st1" style="fill:none;stroke:#000000;stroke-width:0.3601;stroke-miterlimit:10; font-size:150px;">고</text>
	</g>
	<g style="clip-path:url(#SVGID_00000066495210222467311200000008112398697130285220_);">
		<text transform="matrix(0.9982 0 0 1 291.8091 116.4321)" class="st1 st2"> </text>
	</g>
	<g style="clip-path:url(#SVGID_00000066495210222467311200000008112398697130285220_);">
		
			<text transform="matrix(1 0 0 -1 2432.9998 -126)" class="st1" style="fill:none;stroke:#000000;stroke-width:0.3601;stroke-miterlimit:10; font-size:150px;"> </text>
	</g>
	<g style="clip-path:url(#SVGID_00000066495210222467311200000008112398697130285220_);">
		<text transform="matrix(0.9982 0 0 1 300.8047 116.4321)" class="st1 st2">서</text>
	</g>
	<g style="clip-path:url(#SVGID_00000066495210222467311200000008112398697130285220_);">
		
			<text transform="matrix(1 0 0 -1 2507.9998 -126)" class="st1" style="fill:none;stroke:#000000;stroke-width:0.3601;stroke-miterlimit:10; font-size:150px;">서</text>
	</g>
</g>
<text transform="matrix(0.9982 0 0 1 461.6416 99.7305)" class="st1 st3">사 </text>
<text transform="matrix(0.9982 0 0 1 478.1924 99.7305)"><tspan x="0" y="0" class="st1 st3">건</tspan><tspan x="10.94" y="0" class="st1 st3"> </tspan></text>
<text transform="matrix(0.9982 0 0 1 494.624 99.7305)" class="st1 st3">번 </text>
<text transform="matrix(0.9982 0 0 1 511.0557 99.7305)" class="st1 st3">호</text>
<text transform="matrix(0.9982 0 0 1 466.3184 128.2075)"><tspan x="0" y="0" class="st1 st3">2</tspan><tspan x="6.84" y="0" class="st1 st3">4</tspan><tspan x="13.78" y="0" class="st1 st3">11</tspan><tspan x="27.47" y="0" class="st1 st3">5</tspan><tspan x="34.41" y="0" class="st1 st3">23</tspan><tspan x="48.1" y="0" class="st1 st3">3</tspan></text>
<text transform="matrix(0.9982 0 0 1 73.8818 175.4292)" class="st1 st3">사 </text>
<text transform="matrix(0.9982 0 0 1 90.3135 175.4292)" class="st1 st3">건</text>
<text transform="matrix(0.9982 0 0 1 73.8818 210.7554)" class="st1 st3">개 </text>
<text transform="matrix(0.9982 0 0 1 90.3135 210.7554)" class="st1 st3">요</text>
<text transform="matrix(0.9982 0 0 1 136.3691 159.3281)"><tspan x="0" y="0" class="st1 st3">①</tspan><tspan x="10.94" y="0" class="st1 st3"> </tspan></text>
<text transform="matrix(0.9982 0 0 1 152.8008 159.3281)"><tspan x="0" y="0" class="st1 st3">사</tspan><tspan x="11.05" y="0" class="st1 st3 st4"> </tspan><tspan x="16.46" y="0" class="st1 st3"> </tspan></text>
<text transform="matrix(0.9982 0 0 1 174.7495 159.3281)"><tspan x="0" y="0" class="st1 st3">건</tspan><tspan x="11.05" y="0" class="st1 st3 st4"> </tspan><tspan x="16.46" y="0" class="st1 st3"> </tspan></text>
<text transform="matrix(0.9982 0 0 1 196.6982 159.3281)"><tspan x="0" y="0" class="st1 st3">경</tspan><tspan x="11.05" y="0" class="st1 st3 st4"> </tspan><tspan x="16.46" y="0" class="st1 st3"> </tspan></text>
<text transform="matrix(0.9982 0 0 1 218.647 159.3281)" class="st1 st3">과</text>
<text transform="matrix(0.9982 0 0 1 238.7964 150.5566)" class="st1 st3">홍대 </text>
<text transform="matrix(0.9982 0 0 1 266.2622 150.5566)"><tspan x="0" y="0" class="st1 st3">삼거</tspan><tspan x="22.11" y="0" class="st1 st3">리</tspan><tspan x="33.05" y="0" class="st1 st3"> </tspan></text>
<text transform="matrix(0.9982 0 0 1 304.7627 150.5566)"><tspan x="0" y="0" class="st1 st3">포</tspan><tspan x="11.05" y="0" class="st1 st3">차</tspan><tspan x="22" y="0" class="st1 st3"> </tspan></text>
<text transform="matrix(0.9982 0 0 1 332.2285 150.5566)"><tspan x="0" y="0" class="st1 st3">앞</tspan><tspan x="11.05" y="0" class="st1 st3">에</tspan><tspan x="22" y="0" class="st1 st3">서 </tspan></text>
<text transform="matrix(0.9982 0 0 1 370.7285 150.5566)"><tspan x="0" y="0" class="st1 st3">우</tspan><tspan x="10.94" y="0" class="st1 st3">연히 </tspan></text>
<text transform="matrix(0.9982 0 0 1 409.1084 150.5566)"><tspan x="0" y="0" class="st1 st3">피해</tspan><tspan x="22.11" y="0" class="st1 st3">자</tspan><tspan x="33.05" y="0" class="st1 st3"> </tspan></text>
<text transform="matrix(0.9982 0 0 1 447.6084 150.5566)"><tspan x="0" y="0" class="st1 st3">이</tspan><tspan x="11.05" y="0" class="st1 st3">성</tspan><tspan x="22" y="0" class="st1 st3">혜를 </tspan></text>
<text transform="matrix(0.9982 0 0 1 497.0234 150.5566)"><tspan x="0" y="0" class="st1 st3">조우</tspan><tspan x="22.11" y="0" class="st1 st3">한</tspan><tspan x="33.05" y="0" class="st1 st3"> </tspan></text>
<text transform="matrix(0.9982 0 0 1 297.6855 168.0996)"><tspan x="0" y="0" class="st1 st3">가</tspan><tspan x="10.94" y="0" class="st1 st3">해자 </tspan></text>
<text transform="matrix(0.9982 0 0 1 336.0664 168.0996)"><tspan x="0" y="0" class="st1 st3">강중</tspan><tspan x="22.11" y="0" class="st1 st3">기</tspan><tspan x="33.05" y="0" class="st1 st3">가 </tspan></text>
<text transform="matrix(0.9982 0 0 1 385.6006 168.0996)"><tspan x="0" y="0" class="st1 st3">이</tspan><tspan x="10.94" y="0" class="st1 st3">성혜</tspan><tspan x="33.05" y="0" class="st1 st3">를</tspan><tspan x="44" y="0" class="st1 st3"> </tspan></text>
<text transform="matrix(0.9982 0 0 1 435.0146 168.0996)"><tspan x="0" y="0" class="st1 st3">폭</tspan><tspan x="11.05" y="0" class="st1 st3">행</tspan><tspan x="22" y="0" class="st1 st3">함</tspan></text>
<text transform="matrix(0.9982 0 0 1 467.998 168.0996)" class="st1 st3">.</text>
<text transform="matrix(0.9982 0 0 1 136.3691 193.0923)" class="st1 st3">② </text>
<text transform="matrix(0.9982 0 0 1 152.8008 193.0923)"><tspan x="0" y="0" class="st1 st3">가</tspan><tspan x="11.05" y="0" class="st1 st3 st4"> </tspan><tspan x="16.57" y="0" class="st1 st3 st4"> </tspan><tspan x="21.98" y="0" class="st1 st3 st4"> </tspan><tspan x="27.49" y="0" class="st1 st3"> </tspan></text>
<text transform="matrix(0.9982 0 0 1 185.7837 193.0923)"><tspan x="0" y="0" class="st1 st3">해</tspan><tspan x="10.94" y="0" class="st1 st3 st4">  </tspan><tspan x="21.98" y="0" class="st1 st3 st4"> </tspan><tspan x="27.38" y="0" class="st1 st3"> </tspan></text>
<text transform="matrix(0.9982 0 0 1 218.647 193.0923)" class="st1 st3">자</text>
<text transform="matrix(0.9982 0 0 1 257.627 193.0923)"><tspan x="0" y="0" class="st1 st3">강</tspan><tspan x="11.05" y="0" class="st1 st3 st4"> </tspan><tspan x="16.57" y="0" class="st1 st3"> </tspan></text>
<text transform="matrix(0.9982 0 0 1 279.5752 193.0923)"><tspan x="0" y="0" class="st1 st3">중</tspan><tspan x="11.05" y="0" class="st1 st3 st4"> </tspan><tspan x="16.57" y="0" class="st1 st3"> </tspan></text>
<text transform="matrix(0.9982 0 0 1 301.5244 193.0923)" class="st1 st3">기</text>
<text transform="matrix(0.9982 0 0 1 343.2627 193.0923)" class="st1 st3">③ </text>
<text transform="matrix(0.9982 0 0 1 359.6943 193.0923)"><tspan x="0" y="0" class="st1 st3">피</tspan><tspan x="11.05" y="0" class="st1 st3 st4"> </tspan><tspan x="16.57" y="0" class="st1 st3 st4"> </tspan><tspan x="21.98" y="0" class="st1 st3"> </tspan></text>
<text transform="matrix(0.9982 0 0 1 387.1602 193.0923)"><tspan x="0" y="0" class="st1 st3">해</tspan><tspan x="11.05" y="0" class="st1 st3 st4"> </tspan><tspan x="16.46" y="0" class="st1 st3 st4"> </tspan><tspan x="21.98" y="0" class="st1 st3"> </tspan></text>
<text transform="matrix(0.9982 0 0 1 414.625 193.0923)" class="st1 st3">자</text>
<text transform="matrix(0.9982 0 0 1 456.2441 193.0923)"><tspan x="0" y="0" class="st1 st3">이</tspan><tspan x="11.05" y="0" class="st1 st3 st4"> </tspan><tspan x="16.57" y="0" class="st1 st3"> </tspan></text>
<text transform="matrix(0.9982 0 0 1 478.1924 193.0923)"><tspan x="0" y="0" class="st1 st3">성</tspan><tspan x="11.05" y="0" class="st1 st3 st4"> </tspan><tspan x="16.57" y="0" class="st1 st3"> </tspan></text>
<text transform="matrix(0.9982 0 0 1 500.1416 193.0923)" class="st1 st3">혜</text>
<text transform="matrix(0.9982 0 0 1 136.3691 226.8564)" class="st1 st3">④ </text>
<text transform="matrix(0.9982 0 0 1 152.8008 226.8564)"><tspan x="0" y="0" class="st1 st3">발</tspan><tspan x="11.05" y="0" class="st1 st3 st4"> </tspan><tspan x="16.57" y="0" class="st1 st3 st4"> </tspan><tspan x="21.98" y="0" class="st1 st3 st4"> </tspan><tspan x="27.49" y="0" class="st1 st3"> </tspan></text>
<text transform="matrix(0.9982 0 0 1 185.7837 226.8564)"><tspan x="0" y="0" class="st1 st3">생</tspan><tspan x="10.94" y="0" class="st1 st3 st4">  </tspan><tspan x="21.98" y="0" class="st1 st3 st4"> </tspan><tspan x="27.38" y="0" class="st1 st3"> </tspan></text>
<text transform="matrix(0.9982 0 0 1 218.647 226.8564)" class="st1 st3">일</text>
<text transform="matrix(0.9982 0 0 1 256.3076 226.8564)"><tspan x="0" y="0" class="st1 st3">2</tspan><tspan x="6.94" y="0" class="st1 st3">02</tspan><tspan x="20.63" y="0" class="st1 st3">4</tspan><tspan x="27.57" y="0" class="st1 st3">.</tspan><tspan x="30.7" y="0" class="st1 st3">1</tspan><tspan x="37.64" y="0" class="st1 st3">0</tspan><tspan x="44.48" y="0" class="st1 st3">.</tspan><tspan x="47.72" y="0" class="st1 st3">2</tspan><tspan x="54.56" y="0" class="st1 st3">9</tspan></text>
<text transform="matrix(0.9982 0 0 1 343.2627 226.8564)"><tspan x="0" y="0" class="st1 st3">⑤</tspan><tspan x="10.94" y="0" class="st1 st3"> </tspan></text>
<text transform="matrix(0.9982 0 0 1 359.6943 226.8564)" class="st1 st3">사 </text>
<text transform="matrix(0.9982 0 0 1 376.125 226.8564)"><tspan x="0" y="0" class="st1 st3">건</tspan><tspan x="11.05" y="0" class="st1 st3 st4"> </tspan><tspan x="16.57" y="0" class="st1 st3"> </tspan></text>
<text transform="matrix(0.9982 0 0 1 398.0742 226.8564)" class="st1 st3">장 </text>
<text transform="matrix(0.9982 0 0 1 414.625 226.8564)" class="st1 st3">소</text>
<text transform="matrix(0.9982 0 0 1 447.9688 217.9644)"><tspan x="0" y="0" class="st1 st3">서울</tspan><tspan x="22.11" y="0" class="st1 st3">시</tspan><tspan x="33.05" y="0" class="st1 st3"> </tspan></text>
<text transform="matrix(0.9982 0 0 1 486.4688 217.9644)"><tspan x="0" y="0" class="st1 st3">마</tspan><tspan x="11.05" y="0" class="st1 st3">포</tspan><tspan x="22" y="0" class="st1 st3">구 </tspan></text>
<text transform="matrix(0.9982 0 0 1 442.4512 235.6274)" class="st1 st3">홍대 </text>
<text transform="matrix(0.9982 0 0 1 469.917 235.6274)"><tspan x="0" y="0" class="st1 st3">삼거</tspan><tspan x="22.11" y="0" class="st1 st3">리</tspan><tspan x="33.05" y="0" class="st1 st3">포차</tspan></text>
<text transform="matrix(0.9982 0 0 1 49.1743 273.4775)"><tspan x="0" y="0" class="st1 st3">가</tspan><tspan x="10.94" y="0" class="st1 st3">해자 </tspan></text>
<text transform="matrix(0.9982 0 0 1 87.5547 273.4775)" class="st1 st3">동기 </text>
<text transform="matrix(0.9982 0 0 1 115.0205 273.4775)" class="st1 st3">및 </text>
<text transform="matrix(0.9982 0 0 1 62.8477 291.1406)" class="st1 st3">심리 </text>
<text transform="matrix(0.9982 0 0 1 90.3135 291.1406)" class="st1 st3">분석</text>
<text transform="matrix(0.9982 0 0 1 199.2168 255.8145)"><tspan x="0" y="0" class="st1 st3">가</tspan><tspan x="10.94" y="0" class="st1 st3">해자</tspan><tspan x="33.05" y="0" class="st1 st3">는</tspan><tspan x="44" y="0" class="st1 st3"> </tspan></text>
<text transform="matrix(0.9982 0 0 1 248.6313 255.8145)"><tspan x="0" y="0" class="st1 st3">피</tspan><tspan x="11.05" y="0" class="st1 st3">해</tspan><tspan x="22" y="0" class="st1 st3">자에</tspan><tspan x="44.11" y="0" class="st1 st3">게</tspan><tspan x="55.05" y="0" class="st1 st3"> </tspan></text>
<text transform="matrix(0.9982 0 0 1 309.0801 255.8145)"><tspan x="0" y="0" class="st1 st3">폭</tspan><tspan x="11.05" y="0" class="st1 st3">행</tspan><tspan x="22" y="0" class="st1 st3"> </tspan></text>
<text transform="matrix(0.9982 0 0 1 336.5459 255.8145)"><tspan x="0" y="0" class="st1 st3">당</tspan><tspan x="11.05" y="0" class="st1 st3">시</tspan><tspan x="22" y="0" class="st1 st3"> </tspan></text>
<text transform="matrix(0.9982 0 0 1 364.0117 255.8145)"><tspan x="0" y="0" class="st1 st3">원</tspan><tspan x="11.05" y="0" class="st1 st3">한</tspan><tspan x="22" y="0" class="st1 st3">을 </tspan></text>
<text transform="matrix(0.9982 0 0 1 402.5117 255.8145)"><tspan x="0" y="0" class="st1 st3">품</tspan><tspan x="10.94" y="0" class="st1 st3">고 </tspan></text>
<text transform="matrix(0.9982 0 0 1 429.9775 255.8145)"><tspan x="0" y="0" class="st1 st3">있</tspan><tspan x="10.94" y="0" class="st1 st3">었음</tspan></text>
<text transform="matrix(0.9982 0 0 1 462.9609 255.8145)" class="st1 st3">.</text>
<text transform="matrix(0.9982 0 0 1 162.2759 273.4775)"><tspan x="0" y="0" class="st1 st3">피해</tspan><tspan x="22.11" y="0" class="st1 st3">자</tspan><tspan x="33.05" y="0" class="st1 st3">를 </tspan></text>
<text transform="matrix(0.9982 0 0 1 211.8105 273.4775)"><tspan x="0" y="0" class="st1 st3">조</tspan><tspan x="10.94" y="0" class="st1 st3">우하</tspan><tspan x="33.05" y="0" class="st1 st3">는</tspan><tspan x="44" y="0" class="st1 st3"> </tspan></text>
<text transform="matrix(0.9982 0 0 1 261.2246 273.4775)"><tspan x="0" y="0" class="st1 st3">순</tspan><tspan x="11.05" y="0" class="st1 st3">간</tspan><tspan x="22" y="0" class="st1 st3"> </tspan></text>
<text transform="matrix(0.9982 0 0 1 288.6904 273.4775)"><tspan x="0" y="0" class="st1 st3">제</tspan><tspan x="11.05" y="0" class="st1 st3">어</tspan><tspan x="22" y="0" class="st1 st3">할 </tspan></text>
<text transform="matrix(0.9982 0 0 1 327.1904 273.4775)"><tspan x="0" y="0" class="st1 st3">수</tspan><tspan x="10.94" y="0" class="st1 st3"> </tspan></text>
<text transform="matrix(0.9982 0 0 1 343.6221 273.4775)"><tspan x="0" y="0" class="st1 st3">없</tspan><tspan x="11.05" y="0" class="st1 st3">는</tspan><tspan x="22" y="0" class="st1 st3"> </tspan></text>
<text transform="matrix(0.9982 0 0 1 371.0879 273.4775)"><tspan x="0" y="0" class="st1 st3">분</tspan><tspan x="11.05" y="0" class="st1 st3">노</tspan><tspan x="22" y="0" class="st1 st3">가 </tspan></text>
<text transform="matrix(0.9982 0 0 1 409.5879 273.4775)"><tspan x="0" y="0" class="st1 st3">치</tspan><tspan x="10.94" y="0" class="st1 st3">밀었</tspan><tspan x="33.05" y="0" class="st1 st3">다</tspan><tspan x="44" y="0" class="st1 st3">고 </tspan></text>
<text transform="matrix(0.9982 0 0 1 470.0371 273.4775)"><tspan x="0" y="0" class="st1 st3">진</tspan><tspan x="10.94" y="0" class="st1 st3">술함</tspan></text>
<text transform="matrix(0.9982 0 0 1 138.7681 291.1406)"><tspan x="0" y="0" class="st1 st3">원</tspan><tspan x="10.94" y="0" class="st1 st3">한에 </tspan></text>
<text transform="matrix(0.9982 0 0 1 177.1484 291.1406)" class="st1 st3">의한 </text>
<text transform="matrix(0.9982 0 0 1 204.6143 291.1406)"><tspan x="0" y="0" class="st1 st3">폭행</tspan><tspan x="22.11" y="0" class="st1 st3">으</tspan><tspan x="33.05" y="0" class="st1 st3">로 </tspan></text>
<text transform="matrix(0.9982 0 0 1 254.1484 291.1406)"><tspan x="0" y="0" class="st1 st3">추</tspan><tspan x="10.94" y="0" class="st1 st3">정되나</tspan></text>
<text transform="matrix(0.9982 0 0 1 298.0459 291.1406)"><tspan x="0" y="0" class="st1 st3">,</tspan><tspan x="3.24" y="0" class="st1 st3"> </tspan></text>
<text transform="matrix(0.9982 0 0 1 306.8008 291.1406)"><tspan x="0" y="0" class="st1 st3">돌</tspan><tspan x="10.94" y="0" class="st1 st3">발적</tspan><tspan x="33.05" y="0" class="st1 st3">으</tspan><tspan x="44" y="0" class="st1 st3">로 </tspan></text>
<text transform="matrix(0.9982 0 0 1 367.25 291.1406)"><tspan x="0" y="0" class="st1 st3">이</tspan><tspan x="10.94" y="0" class="st1 st3">성을 </tspan></text>
<text transform="matrix(0.9982 0 0 1 405.6299 291.1406)" class="st1 st3">잃고 </text>
<text transform="matrix(0.9982 0 0 1 433.0957 291.1406)"><tspan x="0" y="0" class="st1 st3">폭력</tspan><tspan x="22.11" y="0" class="st1 st3">성</tspan><tspan x="33.05" y="0" class="st1 st3">을 </tspan></text>
<text transform="matrix(0.9982 0 0 1 482.6309 291.1406)"><tspan x="0" y="0" class="st1 st3">보</tspan><tspan x="10.94" y="0" class="st1 st3">였다</tspan><tspan x="33.05" y="0" class="st1 st3">는</tspan><tspan x="44" y="0" class="st1 st3"> </tspan></text>
<text transform="matrix(0.9982 0 0 1 166.2339 308.6836)"><tspan x="0" y="0" class="st1 st3">본</tspan><tspan x="11.05" y="0" class="st1 st3">인</tspan><tspan x="22" y="0" class="st1 st3"> </tspan></text>
<text transform="matrix(0.9982 0 0 1 193.6997 308.6836)"><tspan x="0" y="0" class="st1 st3">진</tspan><tspan x="11.05" y="0" class="st1 st3">술</tspan><tspan x="22" y="0" class="st1 st3">에서 </tspan></text>
<text transform="matrix(0.9982 0 0 1 243.1143 308.6836)" class="st1 st3">최근 </text>
<text transform="matrix(0.9982 0 0 1 270.5801 308.6836)"><tspan x="0" y="0" class="st1 st3">발생</tspan><tspan x="22.11" y="0" class="st1 st3">한</tspan><tspan x="33.05" y="0" class="st1 st3"> </tspan></text>
<text transform="matrix(0.9982 0 0 1 309.0801 308.6836)"><tspan x="0" y="0" class="st1 st3">연</tspan><tspan x="11.05" y="0" class="st1 st3">쇄</tspan><tspan x="22" y="0" class="st1 st3"> </tspan></text>
<text transform="matrix(0.9982 0 0 1 336.5459 308.6836)"><tspan x="0" y="0" class="st1 st3">폭</tspan><tspan x="11.05" y="0" class="st1 st3">행</tspan><tspan x="22" y="0" class="st1 st3"> </tspan></text>
<text transform="matrix(0.9982 0 0 1 364.0117 308.6836)"><tspan x="0" y="0" class="st1 st3">사</tspan><tspan x="11.05" y="0" class="st1 st3">건</tspan><tspan x="22" y="0" class="st1 st3">과의 </tspan></text>
<text transform="matrix(0.9982 0 0 1 413.4258 308.6836)"><tspan x="0" y="0" class="st1 st3">연관</tspan><tspan x="22.11" y="0" class="st1 st3">성</tspan><tspan x="33.05" y="0" class="st1 st3">이 </tspan></text>
<text transform="matrix(0.9982 0 0 1 462.9609 308.6836)"><tspan x="0" y="0" class="st1 st3">의</tspan><tspan x="10.94" y="0" class="st1 st3">심됨</tspan></text>
<text transform="matrix(0.9982 0 0 1 495.9434 308.6836)" class="st1 st3">.</text>
<text transform="matrix(0.9982 0 0 1 51.9331 344.8506)"><tspan x="0" y="0" class="st1 st3">피</tspan><tspan x="10.94" y="0" class="st1 st3">해자</tspan><tspan x="33.05" y="0" class="st1 st3">의</tspan><tspan x="44" y="0" class="st1 st3"> </tspan></text>
<text transform="matrix(0.9982 0 0 1 101.3477 344.8506)" class="st1 st3">상태</text>
<text transform="matrix(0.9982 0 0 1 160.7168 344.8506)"><tspan x="0" y="0" class="st1 st3">의료</tspan><tspan x="22.11" y="0" class="st1 st3">기</tspan><tspan x="33.05" y="0" class="st1 st3">관에</tspan><tspan x="55.16" y="0" class="st1 st3">서</tspan><tspan x="66.11" y="0" class="st1 st3"> </tspan></text>
<text transform="matrix(0.9982 0 0 1 232.1997 344.8506)"><tspan x="0" y="0" class="st1 st3">상</tspan><tspan x="11.05" y="0" class="st1 st3">담</tspan><tspan x="22" y="0" class="st1 st3"> </tspan></text>
<text transform="matrix(0.9982 0 0 1 259.6655 344.8506)" class="st1 st3">및 </text>
<text transform="matrix(0.9982 0 0 1 276.0972 344.8506)"><tspan x="0" y="0" class="st1 st3">진료</tspan><tspan x="22.11" y="0" class="st1 st3">를</tspan><tspan x="33.05" y="0" class="st1 st3"> </tspan></text>
<text transform="matrix(0.9982 0 0 1 314.5977 344.8506)"><tspan x="0" y="0" class="st1 st3">받</tspan><tspan x="11.05" y="0" class="st1 st3">은</tspan><tspan x="22" y="0" class="st1 st3"> </tspan></text>
<text transform="matrix(0.9982 0 0 1 342.0635 344.8506)" class="st1 st3">결과</text>
<text transform="matrix(0.9982 0 0 1 364.0117 344.8506)"><tspan x="0" y="0" class="st1 st3">,</tspan><tspan x="3.24" y="0" class="st1 st3"> </tspan></text>
<text transform="matrix(0.9982 0 0 1 372.7676 344.8506)"><tspan x="0" y="0" class="st1 st3">상</tspan><tspan x="10.94" y="0" class="st1 st3">처 </tspan></text>
<text transform="matrix(0.9982 0 0 1 400.2334 344.8506)"><tspan x="0" y="0" class="st1 st3">및</tspan><tspan x="10.94" y="0" class="st1 st3"> </tspan></text>
<text transform="matrix(0.9982 0 0 1 416.6641 344.8506)"><tspan x="0" y="0" class="st1 st3">정</tspan><tspan x="11.05" y="0" class="st1 st3">신</tspan><tspan x="22" y="0" class="st1 st3">적 </tspan></text>
<text transform="matrix(0.9982 0 0 1 455.1641 344.8506)"><tspan x="0" y="0" class="st1 st3">피</tspan><tspan x="10.94" y="0" class="st1 st3">해 </tspan></text>
<text transform="matrix(0.9982 0 0 1 482.6309 344.8506)"><tspan x="0" y="0" class="st1 st3">확</tspan><tspan x="10.94" y="0" class="st1 st3">인</tspan></text>
<text transform="matrix(0.9982 0 0 1 62.8477 415.1426)" class="st1 st3">조사 </text>
<text transform="matrix(0.9982 0 0 1 90.3135 415.1426)" class="st1 st3">과정</text>
<text transform="matrix(0.9982 0 0 1 145.3647 397.5996)" class="st1 st3">폭행 </text>
<text transform="matrix(0.9982 0 0 1 172.8306 397.5996)"><tspan x="0" y="0" class="st1 st3">현장</tspan><tspan x="22.11" y="0" class="st1 st3">에</tspan><tspan x="33.05" y="0" class="st1 st3">서 </tspan></text>
<text transform="matrix(0.9982 0 0 1 222.3647 397.5996)"><tspan x="0" y="0" class="st1 st3">확</tspan><tspan x="10.94" y="0" class="st1 st3">보된 </tspan></text>
<text transform="matrix(0.9982 0 0 1 260.7451 397.5996)"><tspan x="0" y="0" class="st1 st3">CC</tspan><tspan x="15.59" y="0" class="st1 st3">T</tspan><tspan x="24.33" y="0" class="st1 st3">V</tspan><tspan x="32.61" y="0" class="st1 st3"> </tspan></text>
<text transform="matrix(0.9982 0 0 1 296.9663 397.5996)"><tspan x="0" y="0" class="st1 st3">영</tspan><tspan x="10.94" y="0" class="st1 st3">상</tspan></text>
<text transform="matrix(0.9982 0 0 1 318.915 397.5996)"><tspan x="0" y="0" class="st1 st3">,</tspan><tspan x="3.24" y="0" class="st1 st3"> </tspan></text>
<text transform="matrix(0.9982 0 0 1 327.5508 397.5996)"><tspan x="0" y="0" class="st1 st3">가해</tspan><tspan x="22.11" y="0" class="st1 st3">자</tspan><tspan x="33.05" y="0" class="st1 st3"> </tspan></text>
<text transform="matrix(0.9982 0 0 1 366.0508 397.5996)" class="st1 st3">및 </text>
<text transform="matrix(0.9982 0 0 1 382.4824 397.5996)"><tspan x="0" y="0" class="st1 st3">피해</tspan><tspan x="22.11" y="0" class="st1 st3">자</tspan><tspan x="33.05" y="0" class="st1 st3">의 </tspan></text>
<text transform="matrix(0.9982 0 0 1 432.0166 397.5996)"><tspan x="0" y="0" class="st1 st3">진</tspan><tspan x="10.94" y="0" class="st1 st3">술 </tspan></text>
<text transform="matrix(0.9982 0 0 1 459.4824 397.5996)"><tspan x="0" y="0" class="st1 st3">등</tspan><tspan x="10.94" y="0" class="st1 st3">을 </tspan></text>
<text transform="matrix(0.9982 0 0 1 486.9482 397.5996)"><tspan x="0" y="0" class="st1 st3">토</tspan><tspan x="10.94" y="0" class="st1 st3">대로 </tspan></text>
<text transform="matrix(0.9982 0 0 1 306.3213 415.1426)"><tspan x="0" y="0" class="st1 st3">수</tspan><tspan x="11.05" y="0" class="st1 st3">사</tspan><tspan x="22" y="0" class="st1 st3"> </tspan></text>
<text transform="matrix(0.9982 0 0 1 333.7871 415.1426)" class="st1 st3">진행</text>
<text transform="matrix(0.9982 0 0 1 355.7363 415.1426)" class="st1 st3">.</text>
<text transform="matrix(0.9982 0 0 1 144.2852 432.8057)"><tspan x="0" y="0" class="st1 st3">강</tspan><tspan x="10.94" y="0" class="st1 st3">중기</tspan><tspan x="33.05" y="0" class="st1 st3">와</tspan><tspan x="44" y="0" class="st1 st3"> </tspan></text>
<text transform="matrix(0.9982 0 0 1 193.6997 432.8057)"><tspan x="0" y="0" class="st1 st3">최</tspan><tspan x="11.05" y="0" class="st1 st3">근</tspan><tspan x="22" y="0" class="st1 st3"> </tspan></text>
<text transform="matrix(0.9982 0 0 1 221.1655 432.8057)"><tspan x="0" y="0" class="st1 st3">연</tspan><tspan x="11.05" y="0" class="st1 st3">쇄</tspan><tspan x="22" y="0" class="st1 st3"> </tspan></text>
<text transform="matrix(0.9982 0 0 1 248.6313 432.8057)"><tspan x="0" y="0" class="st1 st3">폭</tspan><tspan x="11.05" y="0" class="st1 st3">행</tspan><tspan x="22" y="0" class="st1 st3"> </tspan></text>
<text transform="matrix(0.9982 0 0 1 276.0972 432.8057)"><tspan x="0" y="0" class="st1 st3">사</tspan><tspan x="11.05" y="0" class="st1 st3">건</tspan><tspan x="22" y="0" class="st1 st3">과의 </tspan></text>
<text transform="matrix(0.9982 0 0 1 325.5117 432.8057)"><tspan x="0" y="0" class="st1 st3">연관</tspan><tspan x="22.11" y="0" class="st1 st3">성</tspan><tspan x="33.05" y="0" class="st1 st3">에 </tspan></text>
<text transform="matrix(0.9982 0 0 1 375.0459 432.8057)"><tspan x="0" y="0" class="st1 st3">대</tspan><tspan x="10.94" y="0" class="st1 st3">한 </tspan></text>
<text transform="matrix(0.9982 0 0 1 402.5117 432.8057)"><tspan x="0" y="0" class="st1 st3">추</tspan><tspan x="10.94" y="0" class="st1 st3">가적</tspan><tspan x="33.05" y="0" class="st1 st3">인</tspan><tspan x="44" y="0" class="st1 st3"> </tspan></text>
<text transform="matrix(0.9982 0 0 1 451.9258 432.8057)"><tspan x="0" y="0" class="st1 st3">조</tspan><tspan x="11.05" y="0" class="st1 st3">사</tspan><tspan x="22" y="0" class="st1 st3"> </tspan></text>
<text transform="matrix(0.9982 0 0 1 479.3926 432.8057)"><tspan x="0" y="0" class="st1 st3">진</tspan><tspan x="11.05" y="0" class="st1 st3">행</tspan><tspan x="22" y="0" class="st1 st3"> </tspan></text>
<text transform="matrix(0.9982 0 0 1 506.8574 432.8057)" class="st1 st3">중</text>
<text transform="matrix(0.9982 0 0 1 517.8926 432.8057)" class="st1 st3">.</text>
<text transform="matrix(0.9982 0 0 1 74.4814 517.1562)" class="st1 st3">상기 </text>
<text transform="matrix(0.9982 0 0 1 101.9473 517.1562)" class="st1 st3">수사 </text>
<text transform="matrix(0.9982 0 0 1 129.4131 517.1562)"><tspan x="0" y="0" class="st1 st3">내용</tspan><tspan x="22.11" y="0" class="st1 st3">을</tspan><tspan x="33.05" y="0" class="st1 st3"> </tspan></text>
<text transform="matrix(0.9982 0 0 1 167.9131 517.1562)"><tspan x="0" y="0" class="st1 st3">보</tspan><tspan x="11.05" y="0" class="st1 st3">고</tspan><tspan x="22" y="0" class="st1 st3">합니다</tspan></text>
<text transform="matrix(0.9982 0 0 1 208.5723 567.8613)"><tspan x="0" y="0" class="st1 st3">2</tspan><tspan x="6.94" y="0" class="st1 st3">02</tspan><tspan x="20.63" y="0" class="st1 st3">4</tspan></text>
<text transform="matrix(0.9982 0 0 1 234.2388 567.8613)"><tspan x="0" y="0" class="st1 st3">년</tspan><tspan x="10.94" y="0" class="st1 st3 st4">  </tspan><tspan x="21.98" y="0" class="st1 st3 st4"> </tspan><tspan x="27.38" y="0" class="st1 st3 st4">  </tspan><tspan x="38.41" y="0" class="st1 st3 st4"> </tspan><tspan x="43.82" y="0" class="st1 st3"> </tspan></text>
<text transform="matrix(0.9982 0 0 1 283.5332 567.8613)"><tspan x="0" y="0" class="st1 st3">1</tspan><tspan x="6.84" y="0" class="st1 st3">1</tspan></text>
<text transform="matrix(0.9982 0 0 1 296.3667 567.8613)"><tspan x="0" y="0" class="st1 st3">월</tspan><tspan x="10.94" y="0" class="st1 st3 st4">  </tspan><tspan x="21.98" y="0" class="st1 st3 st4"> </tspan><tspan x="27.38" y="0" class="st1 st3 st4">  </tspan><tspan x="38.41" y="0" class="st1 st3 st4"> </tspan><tspan x="43.82" y="0" class="st1 st3"> </tspan></text>
<text transform="matrix(0.9982 0 0 1 345.6611 567.8613)"><tspan x="0" y="0" class="st1 st3">0</tspan><tspan x="6.84" y="0" class="st1 st3">2</tspan></text>
<text transform="matrix(0.9982 0 0 1 358.4941 567.8613)" class="st1 st3">일</text>
<text transform="matrix(0.9982 0 0 1 356.4551 600.9053)"><tspan x="0" y="0" class="st1 st3">담</tspan><tspan x="10.94" y="0" class="st1 st3">당 </tspan></text>
<text transform="matrix(0.9982 0 0 1 383.9219 600.9053)"><tspan x="0" y="0" class="st1 st3">수</tspan><tspan x="10.94" y="0" class="st1 st3">사관</tspan><tspan x="33.05" y="0" class="st1 st3 st4"> </tspan><tspan x="38.46" y="0" class="st1 st3 st4">  </tspan><tspan x="49.49" y="0" class="st1 st3"> </tspan></text>
<text transform="matrix(0.9982 0 0 1 438.7334 600.9053)" class="st1 st3">지 </text>
<text transform="matrix(0.9982 0 0 1 455.2842 600.9053)"><tspan x="0" y="0" class="st1 st3">유</tspan><tspan x="10.94" y="0" class="st1 st3"> </tspan></text>
<text transform="matrix(0.9982 0 0 1 471.7158 600.9053)"><tspan x="0" y="0" class="st1 st3">정</tspan><tspan x="11.05" y="0" class="st1 st3 st4"> </tspan><tspan x="16.46" y="0" class="st1 st3 st4">  </tspan><tspan x="27.49" y="0" class="st1 st3 st4"> </tspan><tspan x="32.9" y="0" class="st1 st3 st4">  </tspan><tspan x="43.93" y="0" class="st1 st3 st4"> </tspan><tspan x="49.34" y="0" class="st1 st3"> </tspan></text>
<text transform="matrix(0.9982 0 0 1 234.1191 666.9912)" class="st1 st3">한</text>
<text transform="matrix(1 0 0 -1 1951.9999 -4708)" class="st1" style="fill:none;stroke:#000000;stroke-width:0.2209;stroke-miterlimit:10; font-size:92px;">한</text>
<text transform="matrix(0.9982 0 0 1 245.1533 666.9912)" class="st1 st3"> </text>
<text transform="matrix(1 0 0 -1 2043.9999 -4708)" class="st1" style="fill:none;stroke:#000000;stroke-width:0.2209;stroke-miterlimit:10; font-size:92px;"> </text>
<text transform="matrix(0.9982 0 0 1 250.5503 666.9912)" class="st1 st3">국</text>
<text transform="matrix(1 0 0 -1 2088.9998 -4708)" class="st1" style="fill:none;stroke:#000000;stroke-width:0.2209;stroke-miterlimit:10; font-size:92px;">국</text>
<text transform="matrix(0.9982 0 0 1 261.5845 666.9912)" class="st1 st3"> </text>
<text transform="matrix(1 0 0 -1 2180.9998 -4708)" class="st1" style="fill:none;stroke:#000000;stroke-width:0.2209;stroke-miterlimit:10; font-size:92px;"> </text>
<text transform="matrix(0.9982 0 0 1 267.1016 666.9912)" class="st1 st3">지</text>
<text transform="matrix(1 0 0 -1 2226.9998 -4708)" class="st1" style="fill:none;stroke:#000000;stroke-width:0.2209;stroke-miterlimit:10; font-size:92px;">지</text>
<text transform="matrix(0.9982 0 0 1 278.0156 666.9912)" class="st1 st3"> </text>
<text transform="matrix(1 0 0 -1 2317.9978 -4708)" class="st1" style="fill:none;stroke:#000000;stroke-width:0.2209;stroke-miterlimit:10; font-size:92px;"> </text>
<text transform="matrix(0.9982 0 0 1 283.5332 666.9912)" class="st1 st3">방</text>
<text transform="matrix(1 0 0 -1 2363.9998 -4708)" class="st1" style="fill:none;stroke:#000000;stroke-width:0.2209;stroke-miterlimit:10; font-size:92px;">방</text>
<text transform="matrix(0.9982 0 0 1 294.5674 666.9912)" class="st1 st3"> </text>
<text transform="matrix(1 0 0 -1 2455.9998 -4708)" class="st1" style="fill:none;stroke:#000000;stroke-width:0.2209;stroke-miterlimit:10; font-size:92px;"> </text>
<text transform="matrix(0.9982 0 0 1 299.9648 666.9912)" class="st1 st3">경</text>
<text transform="matrix(1 0 0 -1 2500.9998 -4708)" class="st1" style="fill:none;stroke:#000000;stroke-width:0.2209;stroke-miterlimit:10; font-size:92px;">경</text>
<text transform="matrix(0.9982 0 0 1 310.999 666.9912)" class="st1 st3"> </text>
<text transform="matrix(1 0 0 -1 2592.9998 -4708)" class="st1" style="fill:none;stroke:#000000;stroke-width:0.2209;stroke-miterlimit:10; font-size:92px;"> </text>
<text transform="matrix(0.9982 0 0 1 316.5166 666.9912)" class="st1 st3">찰</text>
<text transform="matrix(1 0 0 -1 2638.9998 -4708)" class="st1" style="fill:none;stroke:#000000;stroke-width:0.2209;stroke-miterlimit:10; font-size:92px;">찰</text>
<text transform="matrix(0.9982 0 0 1 327.4307 666.9912)" class="st1 st3"> </text>
<text transform="matrix(1 0 0 -1 2729.9978 -4708)" class="st1" style="fill:none;stroke:#000000;stroke-width:0.2209;stroke-miterlimit:10; font-size:92px;"> </text>
<text transform="matrix(0.9982 0 0 1 332.9473 666.9912)" class="st1 st3">청</text>
<text transform="matrix(1 0 0 -1 2775.9998 -4708)" class="st1" style="fill:none;stroke:#000000;stroke-width:0.2209;stroke-miterlimit:10; font-size:92px;">청</text>
<line class="st5" x1="44.02" y1="81.59" x2="44.02" y2="718.66"/>
<line class="st6" x1="131.21" y1="138.66" x2="131.21" y2="457.8"/>
<line class="st6" x1="234.72" y1="138.66" x2="234.72" y2="239.83"/>
<line class="st6" x1="335.47" y1="172.3" x2="335.47" y2="239.83"/>
<line class="st6" x1="433.33" y1="172.3" x2="433.33" y2="239.83"/>
<line class="st6" x1="449.65" y1="81.59" x2="449.65" y2="138.66"/>
<line class="st5" x1="534.08" y1="81.59" x2="534.08" y2="718.66"/>
<line class="st5" x1="43.54" y1="81.59" x2="534.68" y2="81.59"/>
<line class="st6" x1="449.53" y1="110.18" x2="534.68" y2="110.18"/>
<line class="st6" x1="43.54" y1="138.66" x2="534.68" y2="138.66"/>
<line class="st6" x1="131.09" y1="172.3" x2="534.68" y2="172.3"/>
<line class="st6" x1="131.09" y1="206.07" x2="534.68" y2="206.07"/>
<line class="st6" x1="43.54" y1="239.83" x2="534.68" y2="239.83"/>
<line class="st6" x1="43.54" y1="316.97" x2="534.68" y2="316.97"/>
<line class="st6" x1="43.54" y1="364.92" x2="534.68" y2="364.92"/>
<line class="st6" x1="43.54" y1="457.8" x2="534.68" y2="457.8"/>
<line class="st5" x1="43.54" y1="718.66" x2="534.68" y2="718.66"/>
<line class="st5" x1="534.08" y1="81.59" x2="534.08" y2="718.66"/>
<line class="st5" x1="44.02" y1="81.59" x2="44.02" y2="718.66"/>
<line class="st5" x1="43.54" y1="718.66" x2="534.68" y2="718.66"/>
<line class="st5" x1="43.54" y1="81.59" x2="534.68" y2="81.59"/>
<text transform="matrix(0.9982 0 0 1 42.5781 736.0811)"><tspan x="0" y="0" class="st1 st3">2</tspan><tspan x="6.84" y="0" class="st1 st3">4</tspan><tspan x="13.78" y="0" class="st1 st3">11</tspan><tspan x="27.47" y="0" class="st1 st3">5</tspan><tspan x="34.41" y="0" class="st1 st3">23</tspan><tspan x="48.1" y="0" class="st1 st3">3</tspan></text>
<text transform="matrix(0.9982 0 0 1 42.5781 753.7441)"><tspan x="0" y="0" class="st1 st3">2</tspan><tspan x="6.84" y="0" class="st1 st3">4</tspan><tspan x="13.78" y="0" class="st1 st3">.</tspan><tspan x="16.91" y="0" class="st1 st3">1</tspan><tspan x="23.86" y="0" class="st1 st3">1</tspan><tspan x="30.7" y="0" class="st1 st3">.</tspan><tspan x="33.94" y="0" class="st1 st3">0</tspan><tspan x="40.78" y="0" class="st1 st3">3</tspan><tspan x="47.72" y="0" class="st1 st3">.</tspan></text>
<text transform="matrix(0.9982 0 0 1 90.5532 753.7441)"><tspan x="0" y="0" class="st1 st3">승</tspan><tspan x="11.05" y="0" class="st1 st3">인</tspan><tspan x="22" y="0" class="st1 st3"> </tspan></text>
</svg>
