<?xml version="1.0" encoding="utf-8"?>
<!-- Generator: Adobe Illustrator 27.9.0, SVG Export Plug-In . SVG Version: 6.00 Build 0)  -->
<svg version="1.1" id="레이어_1" xmlns="http://www.w3.org/2000/svg" xmlns:xlink="http://www.w3.org/1999/xlink" x="0px"
	 y="0px" viewBox="0 0 595 843" style="enable-background:new 0 0 595 843;" xml:space="preserve">
<style type="text/css">
	.st0{clip-path:url(#SVGID_00000067935414263425095740000013065287693757526414_);}
	.st1{font-family:'AdobeMyungjoStd-Medium-KSCpc-EUC-H';}
	.st2{font-size:18.0236px;}
	.st3{font-size:11.0544px;}
	.st4{letter-spacing:1;}
	.st5{fill:none;stroke:#000000;stroke-width:1.079;stroke-miterlimit:10;}
	.st6{fill:none;stroke:#000000;stroke-width:0.36;stroke-miterlimit:10;}
</style>
<g>
	<defs>
		<rect id="SVGID_1_" x="44.02" y="81.59" width="405.63" height="61.76"/>
	</defs>
	<clipPath id="SVGID_00000104692594209979164470000000393167179978611339_">
		<use xlink:href="#SVGID_1_"  style="overflow:visible;"/>
	</clipPath>
	<g style="clip-path:url(#SVGID_00000104692594209979164470000000393167179978611339_);">
		<text transform="matrix(0.9982 0 0 1 174.8696 118.8354)" class="st1 st2">수</text>
	</g>
	<g style="clip-path:url(#SVGID_00000104692594209979164470000000393167179978611339_);">
		
			<text transform="matrix(1 0 0 -1 1457.9999 -146)" class="st1" style="fill:none;stroke:#000000;stroke-width:0.3601;stroke-miterlimit:10; font-size:150px;">수</text>
	</g>
	<g style="clip-path:url(#SVGID_00000104692594209979164470000000393167179978611339_);">
		<text transform="matrix(0.9982 0 0 1 192.8604 118.8354)" class="st1 st2"> </text>
	</g>
	<g style="clip-path:url(#SVGID_00000104692594209979164470000000393167179978611339_);">
		
			<text transform="matrix(1 0 0 -1 1607.9999 -146)" class="st1" style="fill:none;stroke:#000000;stroke-width:0.3601;stroke-miterlimit:10; font-size:150px;"> </text>
	</g>
	<g style="clip-path:url(#SVGID_00000104692594209979164470000000393167179978611339_);">
		<text transform="matrix(0.9982 0 0 1 201.8555 118.8354)" class="st1 st2">사</text>
	</g>
	<g style="clip-path:url(#SVGID_00000104692594209979164470000000393167179978611339_);">
		
			<text transform="matrix(1 0 0 -1 1682.9999 -146)" class="st1" style="fill:none;stroke:#000000;stroke-width:0.3601;stroke-miterlimit:10; font-size:150px;">사</text>
	</g>
	<g style="clip-path:url(#SVGID_00000104692594209979164470000000393167179978611339_);">
		<text transform="matrix(0.9982 0 0 1 219.8462 118.8354)" class="st1 st2"> </text>
	</g>
	<g style="clip-path:url(#SVGID_00000104692594209979164470000000393167179978611339_);">
		
			<text transform="matrix(1 0 0 -1 1832.9999 -146)" class="st1" style="fill:none;stroke:#000000;stroke-width:0.3601;stroke-miterlimit:10; font-size:150px;"> </text>
	</g>
	<g style="clip-path:url(#SVGID_00000104692594209979164470000000393167179978611339_);">
		<text transform="matrix(0.9982 0 0 1 228.8418 118.8354)" class="st1 st2"> </text>
	</g>
	<g style="clip-path:url(#SVGID_00000104692594209979164470000000393167179978611339_);">
		
			<text transform="matrix(1 0 0 -1 1907.9999 -146)" class="st1" style="fill:none;stroke:#000000;stroke-width:0.3601;stroke-miterlimit:10; font-size:150px;"> </text>
	</g>
	<g style="clip-path:url(#SVGID_00000104692594209979164470000000393167179978611339_);">
		<text transform="matrix(0.9982 0 0 1 237.8369 118.8354)" class="st1 st2"> </text>
	</g>
	<g style="clip-path:url(#SVGID_00000104692594209979164470000000393167179978611339_);">
		
			<text transform="matrix(1 0 0 -1 1982.9999 -146)" class="st1" style="fill:none;stroke:#000000;stroke-width:0.3601;stroke-miterlimit:10; font-size:150px;"> </text>
	</g>
	<g style="clip-path:url(#SVGID_00000104692594209979164470000000393167179978611339_);">
		<text transform="matrix(0.9982 0 0 1 246.832 118.8354)" class="st1 st2">보</text>
	</g>
	<g style="clip-path:url(#SVGID_00000104692594209979164470000000393167179978611339_);">
		
			<text transform="matrix(1 0 0 -1 2057.9998 -146)" class="st1" style="fill:none;stroke:#000000;stroke-width:0.3601;stroke-miterlimit:10; font-size:150px;">보</text>
	</g>
	<g style="clip-path:url(#SVGID_00000104692594209979164470000000393167179978611339_);">
		<text transform="matrix(0.9982 0 0 1 264.8232 118.8354)" class="st1 st2"> </text>
	</g>
	<g style="clip-path:url(#SVGID_00000104692594209979164470000000393167179978611339_);">
		
			<text transform="matrix(1 0 0 -1 2207.9998 -146)" class="st1" style="fill:none;stroke:#000000;stroke-width:0.3601;stroke-miterlimit:10; font-size:150px;"> </text>
	</g>
	<g style="clip-path:url(#SVGID_00000104692594209979164470000000393167179978611339_);">
		<text transform="matrix(0.9982 0 0 1 273.8184 118.8354)" class="st1 st2">고</text>
	</g>
	<g style="clip-path:url(#SVGID_00000104692594209979164470000000393167179978611339_);">
		
			<text transform="matrix(1 0 0 -1 2282.9998 -146)" class="st1" style="fill:none;stroke:#000000;stroke-width:0.3601;stroke-miterlimit:10; font-size:150px;">고</text>
	</g>
	<g style="clip-path:url(#SVGID_00000104692594209979164470000000393167179978611339_);">
		<text transform="matrix(0.9982 0 0 1 291.8091 118.8354)" class="st1 st2"> </text>
	</g>
	<g style="clip-path:url(#SVGID_00000104692594209979164470000000393167179978611339_);">
		
			<text transform="matrix(1 0 0 -1 2432.9998 -146)" class="st1" style="fill:none;stroke:#000000;stroke-width:0.3601;stroke-miterlimit:10; font-size:150px;"> </text>
	</g>
	<g style="clip-path:url(#SVGID_00000104692594209979164470000000393167179978611339_);">
		<text transform="matrix(0.9982 0 0 1 300.8047 118.8354)" class="st1 st2">서</text>
	</g>
	<g style="clip-path:url(#SVGID_00000104692594209979164470000000393167179978611339_);">
		
			<text transform="matrix(1 0 0 -1 2507.9998 -146)" class="st1" style="fill:none;stroke:#000000;stroke-width:0.3601;stroke-miterlimit:10; font-size:150px;">서</text>
	</g>
</g>
<text transform="matrix(0.9982 0 0 1 461.6416 100.9321)" class="st1 st3">사 </text>
<text transform="matrix(0.9982 0 0 1 478.1924 100.9321)"><tspan x="0" y="0" class="st1 st3">건</tspan><tspan x="10.94" y="0" class="st1 st3"> </tspan></text>
<text transform="matrix(0.9982 0 0 1 494.624 100.9321)" class="st1 st3">번 </text>
<text transform="matrix(0.9982 0 0 1 511.0557 100.9321)" class="st1 st3">호</text>
<text transform="matrix(0.9982 0 0 1 466.3184 131.8125)"><tspan x="0" y="0" class="st1 st3">2</tspan><tspan x="6.84" y="0" class="st1 st3">3</tspan><tspan x="13.78" y="0" class="st1 st3">11</tspan><tspan x="27.47" y="0" class="st1 st3">4</tspan><tspan x="34.41" y="0" class="st1 st3">00</tspan><tspan x="48.1" y="0" class="st1 st3">2</tspan></text>
<text transform="matrix(0.9982 0 0 1 73.8818 184.4409)" class="st1 st3">사 </text>
<text transform="matrix(0.9982 0 0 1 90.3135 184.4409)" class="st1 st3">건</text>
<text transform="matrix(0.9982 0 0 1 73.8818 219.7671)" class="st1 st3">개 </text>
<text transform="matrix(0.9982 0 0 1 90.3135 219.7671)" class="st1 st3">요</text>
<text transform="matrix(0.9982 0 0 1 136.3691 165.5762)"><tspan x="0" y="0" class="st1 st3">①</tspan><tspan x="10.94" y="0" class="st1 st3"> </tspan></text>
<text transform="matrix(0.9982 0 0 1 152.8008 165.5762)"><tspan x="0" y="0" class="st1 st3">주</tspan><tspan x="11.05" y="0" class="st1 st3 st4"> </tspan><tspan x="16.46" y="0" class="st1 st3"> </tspan></text>
<text transform="matrix(0.9982 0 0 1 174.7495 165.5762)"><tspan x="0" y="0" class="st1 st3">요</tspan><tspan x="11.05" y="0" class="st1 st3 st4"> </tspan><tspan x="16.46" y="0" class="st1 st3"> </tspan></text>
<text transform="matrix(0.9982 0 0 1 196.6982 165.5762)"><tspan x="0" y="0" class="st1 st3">이</tspan><tspan x="11.05" y="0" class="st1 st3 st4"> </tspan><tspan x="16.46" y="0" class="st1 st3"> </tspan></text>
<text transform="matrix(0.9982 0 0 1 218.647 165.5762)" class="st1 st3">슈</text>
<text transform="matrix(0.9982 0 0 1 238.7964 156.6846)"><tspan x="0" y="0" class="st1 st3">광</tspan><tspan x="11.05" y="0" class="st1 st3">성</tspan><tspan x="22" y="0" class="st1 st3">바이</tspan><tspan x="44.11" y="0" class="st1 st3">오</tspan><tspan x="55.05" y="0" class="st1 st3">틱스</tspan><tspan x="77.16" y="0" class="st1 st3">의</tspan><tspan x="88.1" y="0" class="st1 st3"> </tspan></text>
<text transform="matrix(0.9982 0 0 1 332.2285 156.6846)"><tspan x="0" y="0" class="st1 st3">신</tspan><tspan x="11.05" y="0" class="st1 st3">제</tspan><tspan x="22" y="0" class="st1 st3">품 </tspan></text>
<text transform="matrix(0.9982 0 0 1 370.7285 156.6846)" class="st1 st3">&apos;</text>
<text transform="matrix(0.9982 0 0 1 373.4863 156.6846)"><tspan x="0" y="0" class="st1 st3">에</tspan><tspan x="10.94" y="0" class="st1 st3">스텔</tspan><tspan x="33.05" y="0" class="st1 st3">라</tspan><tspan x="44" y="0" class="st1 st3">티오</tspan></text>
<text transform="matrix(0.9982 0 0 1 439.4531 156.6846)" class="st1 st3">&apos; </text>
<text transform="matrix(0.9982 0 0 1 447.6084 156.6846)"><tspan x="0" y="0" class="st1 st3">디퓨</tspan><tspan x="22.11" y="0" class="st1 st3">저</tspan><tspan x="33.05" y="0" class="st1 st3">에서 </tspan></text>
<text transform="matrix(0.9982 0 0 1 508.0576 156.6846)" class="st1 st3">독성 </text>
<text transform="matrix(0.9982 0 0 1 297.6855 174.3477)"><tspan x="0" y="0" class="st1 st3">물</tspan><tspan x="11.05" y="0" class="st1 st3">질</tspan><tspan x="22" y="0" class="st1 st3"> </tspan></text>
<text transform="matrix(0.9982 0 0 1 325.1523 174.3477)"><tspan x="0" y="0" class="st1 st3">발</tspan><tspan x="11.05" y="0" class="st1 st3">견</tspan><tspan x="22" y="0" class="st1 st3">에 </tspan></text>
<text transform="matrix(0.9982 0 0 1 363.6523 174.3477)"><tspan x="0" y="0" class="st1 st3">따</tspan><tspan x="10.94" y="0" class="st1 st3">른 </tspan></text>
<text transform="matrix(0.9982 0 0 1 391.1172 174.3477)"><tspan x="0" y="0" class="st1 st3">집</tspan><tspan x="10.94" y="0" class="st1 st3">단 </tspan></text>
<text transform="matrix(0.9982 0 0 1 418.584 174.3477)"><tspan x="0" y="0" class="st1 st3">민</tspan><tspan x="10.94" y="0" class="st1 st3">원 </tspan></text>
<text transform="matrix(0.9982 0 0 1 446.0488 174.3477)"><tspan x="0" y="0" class="st1 st3">발</tspan><tspan x="10.94" y="0" class="st1 st3">생</tspan></text>
<text transform="matrix(0.9982 0 0 1 467.998 174.3477)" class="st1 st3">.</text>
<text transform="matrix(0.9982 0 0 1 136.3691 202.104)" class="st1 st3">② </text>
<text transform="matrix(0.9982 0 0 1 152.8008 202.104)"><tspan x="0" y="0" class="st1 st3">업</tspan><tspan x="11.05" y="0" class="st1 st3 st4"> </tspan><tspan x="16.57" y="0" class="st1 st3 st4"> </tspan><tspan x="21.98" y="0" class="st1 st3 st4"> </tspan><tspan x="27.49" y="0" class="st1 st3"> </tspan></text>
<text transform="matrix(0.9982 0 0 1 185.7837 202.104)"><tspan x="0" y="0" class="st1 st3">체</tspan><tspan x="10.94" y="0" class="st1 st3 st4">  </tspan><tspan x="21.98" y="0" class="st1 st3 st4"> </tspan><tspan x="27.38" y="0" class="st1 st3"> </tspan></text>
<text transform="matrix(0.9982 0 0 1 218.647 202.104)" class="st1 st3">명</text>
<text transform="matrix(0.9982 0 0 1 246.5923 202.104)"><tspan x="0" y="0" class="st1 st3">광성</tspan><tspan x="22.11" y="0" class="st1 st3">바</tspan><tspan x="33.05" y="0" class="st1 st3">이오</tspan><tspan x="55.16" y="0" class="st1 st3">틱</tspan><tspan x="66.11" y="0" class="st1 st3">스</tspan></text>
<text transform="matrix(0.9982 0 0 1 343.2627 202.104)" class="st1 st3">③ </text>
<text transform="matrix(0.9982 0 0 1 359.6943 202.104)"><tspan x="0" y="0" class="st1 st3">제</tspan><tspan x="11.05" y="0" class="st1 st3 st4"> </tspan><tspan x="16.57" y="0" class="st1 st3 st4"> </tspan><tspan x="21.98" y="0" class="st1 st3"> </tspan></text>
<text transform="matrix(0.9982 0 0 1 387.1602 202.104)"><tspan x="0" y="0" class="st1 st3">품</tspan><tspan x="11.05" y="0" class="st1 st3 st4"> </tspan><tspan x="16.46" y="0" class="st1 st3 st4"> </tspan><tspan x="21.98" y="0" class="st1 st3"> </tspan></text>
<text transform="matrix(0.9982 0 0 1 414.625 202.104)" class="st1 st3">명</text>
<text transform="matrix(0.9982 0 0 1 450.7266 193.3325)"><tspan x="0" y="0" class="st1 st3">에</tspan><tspan x="11.05" y="0" class="st1 st3">스</tspan><tspan x="22" y="0" class="st1 st3">텔라</tspan><tspan x="44.11" y="0" class="st1 st3">티</tspan><tspan x="55.05" y="0" class="st1 st3">오 </tspan></text>
<text transform="matrix(0.9982 0 0 1 461.7617 210.8755)" class="st1 st3">(</text>
<text transform="matrix(0.9982 0 0 1 467.2783 210.8755)"><tspan x="0" y="0" class="st1 st3">디</tspan><tspan x="10.94" y="0" class="st1 st3">퓨저</tspan></text>
<text transform="matrix(0.9982 0 0 1 500.2617 210.8755)" class="st1 st3">)</text>
<text transform="matrix(0.9982 0 0 1 136.2495 238.6318)" class="st1 st3">④ </text>
<text transform="matrix(0.9982 0 0 1 152.8008 238.6318)"><tspan x="0" y="0" class="st1 st3">이</tspan><tspan x="10.94" y="0" class="st1 st3">슈 </tspan></text>
<text transform="matrix(0.9982 0 0 1 180.2666 238.6318)"><tspan x="0" y="0" class="st1 st3">발</tspan><tspan x="10.94" y="0" class="st1 st3">생 </tspan></text>
<text transform="matrix(0.9982 0 0 1 207.7324 238.6318)"><tspan x="0" y="0" class="st1 st3">기</tspan><tspan x="10.94" y="0" class="st1 st3">간</tspan></text>
<text transform="matrix(0.9982 0 0 1 251.9897 238.6318)"><tspan x="0" y="0" class="st1 st3">2</tspan><tspan x="6.84" y="0" class="st1 st3">0</tspan><tspan x="13.78" y="0" class="st1 st3">23</tspan><tspan x="27.47" y="0" class="st1 st3">.</tspan><tspan x="30.71" y="0" class="st1 st3">1</tspan><tspan x="37.55" y="0" class="st1 st3">1</tspan><tspan x="44.49" y="0" class="st1 st3">.</tspan><tspan x="47.62" y="0" class="st1 st3">0</tspan><tspan x="54.56" y="0" class="st1 st3">9</tspan><tspan x="61.41" y="0" class="st1 st3">~</tspan></text>
<text transform="matrix(0.9982 0 0 1 343.2627 238.6318)" class="st1 st3">⑤ </text>
<text transform="matrix(0.9982 0 0 1 359.6943 238.6318)"><tspan x="0" y="0" class="st1 st3">신</tspan><tspan x="11.05" y="0" class="st1 st3 st4"> </tspan><tspan x="16.57" y="0" class="st1 st3 st4"> </tspan><tspan x="21.98" y="0" class="st1 st3"> </tspan></text>
<text transform="matrix(0.9982 0 0 1 387.1602 238.6318)"><tspan x="0" y="0" class="st1 st3">고</tspan><tspan x="11.05" y="0" class="st1 st3 st4"> </tspan><tspan x="16.46" y="0" class="st1 st3 st4"> </tspan><tspan x="21.98" y="0" class="st1 st3"> </tspan></text>
<text transform="matrix(0.9982 0 0 1 414.625 238.6318)" class="st1 st3">인</text>
<text transform="matrix(0.9982 0 0 1 439.8125 229.8604)"><tspan x="0" y="0" class="st1 st3">상</tspan><tspan x="10.94" y="0" class="st1 st3">지우 </tspan></text>
<text transform="matrix(0.9982 0 0 1 478.1924 229.8604)" class="st1 st3">외 </text>
<text transform="matrix(0.9982 0 0 1 494.7441 229.8604)"><tspan x="0" y="0" class="st1 st3">소</tspan><tspan x="10.94" y="0" class="st1 st3">비자 </tspan></text>
<text transform="matrix(0.9982 0 0 1 458.043 247.5234)" class="st1 st3">집단 </text>
<text transform="matrix(0.9982 0 0 1 485.5088 247.5234)"><tspan x="0" y="0" class="st1 st3">2</tspan><tspan x="6.94" y="0" class="st1 st3">3</tspan></text>
<text transform="matrix(0.9982 0 0 1 498.3418 247.5234)" class="st1 st3">인</text>
<text transform="matrix(0.9982 0 0 1 54.6914 298.8301)"><tspan x="0" y="0" class="st1 st3">조</tspan><tspan x="10.94" y="0" class="st1 st3">사 </tspan></text>
<text transform="matrix(0.9982 0 0 1 82.1572 298.8301)"><tspan x="0" y="0" class="st1 st3">및</tspan><tspan x="10.94" y="0" class="st1 st3"> </tspan></text>
<text transform="matrix(0.9982 0 0 1 98.5889 298.8301)" class="st1 st3">분석</text>
<text transform="matrix(0.9982 0 0 1 216.8477 272.3955)"><tspan x="0" y="0" class="st1 st3">관</tspan><tspan x="11.05" y="0" class="st1 st3">련</tspan><tspan x="22" y="0" class="st1 st3"> </tspan></text>
<text transform="matrix(0.9982 0 0 1 244.3135 272.3955)"><tspan x="0" y="0" class="st1 st3">제</tspan><tspan x="11.05" y="0" class="st1 st3">품</tspan><tspan x="22" y="0" class="st1 st3"> </tspan></text>
<text transform="matrix(0.9982 0 0 1 271.7793 272.3955)"><tspan x="0" y="0" class="st1 st3">샘</tspan><tspan x="11.05" y="0" class="st1 st3">플</tspan><tspan x="22" y="0" class="st1 st3"> </tspan></text>
<text transform="matrix(0.9982 0 0 1 299.2451 272.3955)"><tspan x="0" y="0" class="st1 st3">분</tspan><tspan x="11.05" y="0" class="st1 st3">석</tspan><tspan x="22" y="0" class="st1 st3"> </tspan></text>
<text transform="matrix(0.9982 0 0 1 326.7109 272.3955)" class="st1 st3">결과</text>
<text transform="matrix(0.9982 0 0 1 348.6602 272.3955)"><tspan x="0" y="0" class="st1 st3">,</tspan><tspan x="3.24" y="0" class="st1 st3"> </tspan></text>
<text transform="matrix(0.9982 0 0 1 357.415 272.3955)"><tspan x="0" y="0" class="st1 st3">독</tspan><tspan x="10.94" y="0" class="st1 st3">성 </tspan></text>
<text transform="matrix(0.9982 0 0 1 384.8809 272.3955)"><tspan x="0" y="0" class="st1 st3">물</tspan><tspan x="10.94" y="0" class="st1 st3">질 </tspan></text>
<text transform="matrix(0.9982 0 0 1 412.3467 272.3955)"><tspan x="0" y="0" class="st1 st3">미</tspan><tspan x="10.94" y="0" class="st1 st3">확인</tspan></text>
<text transform="matrix(0.9982 0 0 1 445.3301 272.3955)" class="st1 st3">.</text>
<text transform="matrix(0.9982 0 0 1 185.4238 289.939)" class="st1 st3">민원 </text>
<text transform="matrix(0.9982 0 0 1 212.8896 289.939)" class="st1 st3">대상 </text>
<text transform="matrix(0.9982 0 0 1 240.3555 289.939)" class="st1 st3">제품 </text>
<text transform="matrix(0.9982 0 0 1 267.8213 289.939)" class="st1 st3">중 </text>
<text transform="matrix(0.9982 0 0 1 284.373 289.939)"><tspan x="0" y="0" class="st1 st3">특</tspan><tspan x="10.94" y="0" class="st1 st3">이 </tspan></text>
<text transform="matrix(0.9982 0 0 1 311.8389 289.939)"><tspan x="0" y="0" class="st1 st3">증</tspan><tspan x="10.94" y="0" class="st1 st3">상을 </tspan></text>
<text transform="matrix(0.9982 0 0 1 350.2188 289.939)" class="st1 st3">보인 </text>
<text transform="matrix(0.9982 0 0 1 377.6846 289.939)" class="st1 st3">사례 </text>
<text transform="matrix(0.9982 0 0 1 405.1504 289.939)"><tspan x="0" y="0" class="st1 st3">파악</tspan><tspan x="22.11" y="0" class="st1 st3">되</tspan><tspan x="33.05" y="0" class="st1 st3">지 </tspan></text>
<text transform="matrix(0.9982 0 0 1 454.6846 289.939)"><tspan x="0" y="0" class="st1 st3">않</tspan><tspan x="10.94" y="0" class="st1 st3">음</tspan></text>
<text transform="matrix(0.9982 0 0 1 476.6338 289.939)" class="st1 st3">.</text>
<text transform="matrix(0.9982 0 0 1 210.1313 307.6021)"><tspan x="0" y="0" class="st1 st3">광성</tspan><tspan x="22.11" y="0" class="st1 st3">바</tspan><tspan x="33.05" y="0" class="st1 st3">이오</tspan><tspan x="55.16" y="0" class="st1 st3">틱</tspan><tspan x="66.11" y="0" class="st1 st3">스는 </tspan></text>
<text transform="matrix(0.9982 0 0 1 303.5625 307.6021)" class="st1 st3">제품 </text>
<text transform="matrix(0.9982 0 0 1 331.0293 307.6021)" class="st1 st3">리콜 </text>
<text transform="matrix(0.9982 0 0 1 358.4941 307.6021)" class="st1 st3">및 </text>
<text transform="matrix(0.9982 0 0 1 375.0459 307.6021)"><tspan x="0" y="0" class="st1 st3">환</tspan><tspan x="10.94" y="0" class="st1 st3">불 </tspan></text>
<text transform="matrix(0.9982 0 0 1 402.5117 307.6021)"><tspan x="0" y="0" class="st1 st3">정</tspan><tspan x="10.94" y="0" class="st1 st3">책 </tspan></text>
<text transform="matrix(0.9982 0 0 1 429.9775 307.6021)"><tspan x="0" y="0" class="st1 st3">시</tspan><tspan x="10.94" y="0" class="st1 st3">행</tspan></text>
<text transform="matrix(0.9982 0 0 1 451.9258 307.6021)" class="st1 st3">.</text>
<text transform="matrix(0.9982 0 0 1 229.4414 325.2651)"><tspan x="0" y="0" class="st1 st3">수</tspan><tspan x="10.94" y="0" class="st1 st3">사 </tspan></text>
<text transform="matrix(0.9982 0 0 1 256.9072 325.2651)"><tspan x="0" y="0" class="st1 st3">기</tspan><tspan x="10.94" y="0" class="st1 st3">간 </tspan></text>
<text transform="matrix(0.9982 0 0 1 284.373 325.2651)"><tspan x="0" y="0" class="st1 st3">동</tspan><tspan x="10.94" y="0" class="st1 st3">안 </tspan></text>
<text transform="matrix(0.9982 0 0 1 311.8389 325.2651)"><tspan x="0" y="0" class="st1 st3">협</tspan><tspan x="10.94" y="0" class="st1 st3">조적</tspan><tspan x="33.05" y="0" class="st1 st3">인</tspan><tspan x="44" y="0" class="st1 st3"> </tspan></text>
<text transform="matrix(0.9982 0 0 1 361.2529 325.2651)"><tspan x="0" y="0" class="st1 st3">자</tspan><tspan x="11.05" y="0" class="st1 st3">세</tspan><tspan x="22" y="0" class="st1 st3">를 </tspan></text>
<text transform="matrix(0.9982 0 0 1 399.7529 325.2651)"><tspan x="0" y="0" class="st1 st3">유</tspan><tspan x="10.94" y="0" class="st1 st3">지함</tspan></text>
<text transform="matrix(0.9982 0 0 1 432.7363 325.2651)" class="st1 st3">.</text>
<text transform="matrix(0.9982 0 0 1 76.6401 375.1304)"><tspan x="0" y="0" class="st1 st3">결</tspan><tspan x="10.94" y="0" class="st1 st3">과</tspan></text>
<text transform="matrix(0.9982 0 0 1 214.0894 357.4673)"><tspan x="0" y="0" class="st1 st3">수</tspan><tspan x="11.05" y="0" class="st1 st3">사</tspan><tspan x="22" y="0" class="st1 st3"> </tspan></text>
<text transform="matrix(0.9982 0 0 1 241.5552 357.4673)" class="st1 st3">결과</text>
<text transform="matrix(0.9982 0 0 1 263.5039 357.4673)"><tspan x="0" y="0" class="st1 st3">,</tspan><tspan x="3.24" y="0" class="st1 st3"> </tspan></text>
<text transform="matrix(0.9982 0 0 1 272.2593 357.4673)"><tspan x="0" y="0" class="st1 st3">독</tspan><tspan x="10.94" y="0" class="st1 st3">성 </tspan></text>
<text transform="matrix(0.9982 0 0 1 299.7246 357.4673)"><tspan x="0" y="0" class="st1 st3">물</tspan><tspan x="10.94" y="0" class="st1 st3">질은 </tspan></text>
<text transform="matrix(0.9982 0 0 1 338.1055 357.4673)"><tspan x="0" y="0" class="st1 st3">예외</tspan><tspan x="22.11" y="0" class="st1 st3">적</tspan><tspan x="33.05" y="0" class="st1 st3"> </tspan></text>
<text transform="matrix(0.9982 0 0 1 376.6055 357.4673)"><tspan x="0" y="0" class="st1 st3">상</tspan><tspan x="11.05" y="0" class="st1 st3">황</tspan><tspan x="22" y="0" class="st1 st3">으로 </tspan></text>
<text transform="matrix(0.9982 0 0 1 426.0195 357.4673)" class="st1 st3">판단</text>
<text transform="matrix(0.9982 0 0 1 448.0879 357.4673)" class="st1 st3">.</text>
<text transform="matrix(0.9982 0 0 1 234.9585 375.1304)"><tspan x="0" y="0" class="st1 st3">추</tspan><tspan x="10.94" y="0" class="st1 st3">가로 </tspan></text>
<text transform="matrix(0.9982 0 0 1 273.3389 375.1304)"><tspan x="0" y="0" class="st1 st3">발견</tspan><tspan x="22.11" y="0" class="st1 st3">된</tspan><tspan x="33.05" y="0" class="st1 st3"> </tspan></text>
<text transform="matrix(0.9982 0 0 1 311.8389 375.1304)"><tspan x="0" y="0" class="st1 st3">특</tspan><tspan x="11.05" y="0" class="st1 st3">별</tspan><tspan x="22" y="0" class="st1 st3">한 </tspan></text>
<text transform="matrix(0.9982 0 0 1 350.3389 375.1304)"><tspan x="0" y="0" class="st1 st3">이</tspan><tspan x="10.94" y="0" class="st1 st3">상 </tspan></text>
<text transform="matrix(0.9982 0 0 1 377.8047 375.1304)"><tspan x="0" y="0" class="st1 st3">사</tspan><tspan x="10.94" y="0" class="st1 st3">항 </tspan></text>
<text transform="matrix(0.9982 0 0 1 405.2705 375.1304)"><tspan x="0" y="0" class="st1 st3">없</tspan><tspan x="10.94" y="0" class="st1 st3">음</tspan></text>
<text transform="matrix(0.9982 0 0 1 427.2188 375.1304)" class="st1 st3">.</text>
<text transform="matrix(0.9982 0 0 1 237.7168 392.6733)"><tspan x="0" y="0" class="st1 st3">내</tspan><tspan x="10.94" y="0" class="st1 st3">사 </tspan></text>
<text transform="matrix(0.9982 0 0 1 265.1826 392.6733)"><tspan x="0" y="0" class="st1 st3">종</tspan><tspan x="10.94" y="0" class="st1 st3">결 </tspan></text>
<text transform="matrix(0.9982 0 0 1 292.6484 392.6733)"><tspan x="0" y="0" class="st1 st3">및</tspan><tspan x="10.94" y="0" class="st1 st3"> </tspan></text>
<text transform="matrix(0.9982 0 0 1 309.0801 392.6733)"><tspan x="0" y="0" class="st1 st3">기</tspan><tspan x="11.05" y="0" class="st1 st3">업</tspan><tspan x="22" y="0" class="st1 st3"> </tspan></text>
<text transform="matrix(0.9982 0 0 1 336.5459 392.6733)"><tspan x="0" y="0" class="st1 st3">조</tspan><tspan x="11.05" y="0" class="st1 st3">치</tspan><tspan x="22" y="0" class="st1 st3">로 </tspan></text>
<text transform="matrix(0.9982 0 0 1 375.0459 392.6733)"><tspan x="0" y="0" class="st1 st3">사</tspan><tspan x="10.94" y="0" class="st1 st3">태 </tspan></text>
<text transform="matrix(0.9982 0 0 1 402.5117 392.6733)"><tspan x="0" y="0" class="st1 st3">해</tspan><tspan x="10.94" y="0" class="st1 st3">결</tspan></text>
<text transform="matrix(0.9982 0 0 1 424.4609 392.6733)" class="st1 st3">.</text>
<text transform="matrix(0.9982 0 0 1 74.4814 484.7139)" class="st1 st3">상기 </text>
<text transform="matrix(0.9982 0 0 1 101.9473 484.7139)" class="st1 st3">조사 </text>
<text transform="matrix(0.9982 0 0 1 129.4131 484.7139)"><tspan x="0" y="0" class="st1 st3">결과</tspan><tspan x="22.11" y="0" class="st1 st3">에</tspan><tspan x="33.05" y="0" class="st1 st3"> </tspan></text>
<text transform="matrix(0.9982 0 0 1 167.9131 484.7139)"><tspan x="0" y="0" class="st1 st3">의</tspan><tspan x="11.05" y="0" class="st1 st3">하</tspan><tspan x="22" y="0" class="st1 st3">여 </tspan></text>
<text transform="matrix(0.9982 0 0 1 206.4131 484.7139)"><tspan x="0" y="0" class="st1 st3">내</tspan><tspan x="10.94" y="0" class="st1 st3">사종</tspan><tspan x="33.05" y="0" class="st1 st3">결</tspan><tspan x="44" y="0" class="st1 st3"> </tspan></text>
<text transform="matrix(0.9982 0 0 1 255.8276 484.7139)"><tspan x="0" y="0" class="st1 st3">처</tspan><tspan x="11.05" y="0" class="st1 st3">리</tspan><tspan x="22" y="0" class="st1 st3">합니다</tspan></text>
<text transform="matrix(0.9982 0 0 1 310.7598 484.7139)" class="st1 st3">.</text>
<text transform="matrix(0.9982 0 0 1 208.5723 535.4199)"><tspan x="0" y="0" class="st1 st3">2</tspan><tspan x="6.94" y="0" class="st1 st3">02</tspan><tspan x="20.63" y="0" class="st1 st3">3</tspan></text>
<text transform="matrix(0.9982 0 0 1 234.2388 535.4199)"><tspan x="0" y="0" class="st1 st3">년</tspan><tspan x="10.94" y="0" class="st1 st3 st4">  </tspan><tspan x="21.98" y="0" class="st1 st3 st4"> </tspan><tspan x="27.38" y="0" class="st1 st3 st4">  </tspan><tspan x="38.41" y="0" class="st1 st3 st4"> </tspan><tspan x="43.82" y="0" class="st1 st3"> </tspan></text>
<text transform="matrix(0.9982 0 0 1 283.5332 535.4199)"><tspan x="0" y="0" class="st1 st3">1</tspan><tspan x="6.84" y="0" class="st1 st3">2</tspan></text>
<text transform="matrix(0.9982 0 0 1 296.3667 535.4199)"><tspan x="0" y="0" class="st1 st3">월</tspan><tspan x="10.94" y="0" class="st1 st3 st4">  </tspan><tspan x="21.98" y="0" class="st1 st3 st4"> </tspan><tspan x="27.38" y="0" class="st1 st3 st4">  </tspan><tspan x="38.41" y="0" class="st1 st3 st4"> </tspan><tspan x="43.82" y="0" class="st1 st3"> </tspan></text>
<text transform="matrix(0.9982 0 0 1 345.6611 535.4199)"><tspan x="0" y="0" class="st1 st3">1</tspan><tspan x="6.84" y="0" class="st1 st3">6</tspan></text>
<text transform="matrix(0.9982 0 0 1 358.4941 535.4199)" class="st1 st3">일</text>
<text transform="matrix(0.9982 0 0 1 356.4551 568.4629)"><tspan x="0" y="0" class="st1 st3">담</tspan><tspan x="10.94" y="0" class="st1 st3">당 </tspan></text>
<text transform="matrix(0.9982 0 0 1 383.9219 568.4629)"><tspan x="0" y="0" class="st1 st3">수</tspan><tspan x="10.94" y="0" class="st1 st3">사관</tspan><tspan x="33.05" y="0" class="st1 st3 st4"> </tspan><tspan x="38.46" y="0" class="st1 st3 st4">  </tspan><tspan x="49.49" y="0" class="st1 st3"> </tspan></text>
<text transform="matrix(0.9982 0 0 1 438.7334 568.4629)" class="st1 st3">한 </text>
<text transform="matrix(0.9982 0 0 1 455.2842 568.4629)"><tspan x="0" y="0" class="st1 st3">구</tspan><tspan x="10.94" y="0" class="st1 st3"> </tspan></text>
<text transform="matrix(0.9982 0 0 1 471.7158 568.4629)"><tspan x="0" y="0" class="st1 st3">영</tspan><tspan x="11.05" y="0" class="st1 st3 st4"> </tspan><tspan x="16.46" y="0" class="st1 st3 st4">  </tspan><tspan x="27.49" y="0" class="st1 st3 st4"> </tspan><tspan x="32.9" y="0" class="st1 st3 st4">  </tspan><tspan x="43.93" y="0" class="st1 st3 st4"> </tspan><tspan x="49.34" y="0" class="st1 st3"> </tspan></text>
<text transform="matrix(0.9982 0 0 1 234.1191 634.5488)" class="st1 st3">한</text>
<text transform="matrix(1 0 0 -1 1951.9999 -4438)" class="st1" style="fill:none;stroke:#000000;stroke-width:0.2209;stroke-miterlimit:10; font-size:92px;">한</text>
<text transform="matrix(0.9982 0 0 1 245.1533 634.5488)" class="st1 st3"> </text>
<text transform="matrix(1 0 0 -1 2043.9999 -4438)" class="st1" style="fill:none;stroke:#000000;stroke-width:0.2209;stroke-miterlimit:10; font-size:92px;"> </text>
<text transform="matrix(0.9982 0 0 1 250.5503 634.5488)" class="st1 st3">국</text>
<text transform="matrix(1 0 0 -1 2088.9998 -4438)" class="st1" style="fill:none;stroke:#000000;stroke-width:0.2209;stroke-miterlimit:10; font-size:92px;">국</text>
<text transform="matrix(0.9982 0 0 1 261.5845 634.5488)" class="st1 st3"> </text>
<text transform="matrix(1 0 0 -1 2180.9998 -4438)" class="st1" style="fill:none;stroke:#000000;stroke-width:0.2209;stroke-miterlimit:10; font-size:92px;"> </text>
<text transform="matrix(0.9982 0 0 1 267.1016 634.5488)" class="st1 st3">지</text>
<text transform="matrix(1 0 0 -1 2226.9998 -4438)" class="st1" style="fill:none;stroke:#000000;stroke-width:0.2209;stroke-miterlimit:10; font-size:92px;">지</text>
<text transform="matrix(0.9982 0 0 1 278.0156 634.5488)" class="st1 st3"> </text>
<text transform="matrix(1 0 0 -1 2317.9978 -4438)" class="st1" style="fill:none;stroke:#000000;stroke-width:0.2209;stroke-miterlimit:10; font-size:92px;"> </text>
<text transform="matrix(0.9982 0 0 1 283.5332 634.5488)" class="st1 st3">방</text>
<text transform="matrix(1 0 0 -1 2363.9998 -4438)" class="st1" style="fill:none;stroke:#000000;stroke-width:0.2209;stroke-miterlimit:10; font-size:92px;">방</text>
<text transform="matrix(0.9982 0 0 1 294.5674 634.5488)" class="st1 st3"> </text>
<text transform="matrix(1 0 0 -1 2455.9998 -4438)" class="st1" style="fill:none;stroke:#000000;stroke-width:0.2209;stroke-miterlimit:10; font-size:92px;"> </text>
<text transform="matrix(0.9982 0 0 1 299.9648 634.5488)" class="st1 st3">경</text>
<text transform="matrix(1 0 0 -1 2500.9998 -4438)" class="st1" style="fill:none;stroke:#000000;stroke-width:0.2209;stroke-miterlimit:10; font-size:92px;">경</text>
<text transform="matrix(0.9982 0 0 1 310.999 634.5488)" class="st1 st3"> </text>
<text transform="matrix(1 0 0 -1 2592.9998 -4438)" class="st1" style="fill:none;stroke:#000000;stroke-width:0.2209;stroke-miterlimit:10; font-size:92px;"> </text>
<text transform="matrix(0.9982 0 0 1 316.5166 634.5488)" class="st1 st3">찰</text>
<text transform="matrix(1 0 0 -1 2638.9998 -4438)" class="st1" style="fill:none;stroke:#000000;stroke-width:0.2209;stroke-miterlimit:10; font-size:92px;">찰</text>
<text transform="matrix(0.9982 0 0 1 327.4307 634.5488)" class="st1 st3"> </text>
<text transform="matrix(1 0 0 -1 2729.9978 -4438)" class="st1" style="fill:none;stroke:#000000;stroke-width:0.2209;stroke-miterlimit:10; font-size:92px;"> </text>
<text transform="matrix(0.9982 0 0 1 332.9473 634.5488)" class="st1 st3">청</text>
<text transform="matrix(1 0 0 -1 2775.9998 -4438)" class="st1" style="fill:none;stroke:#000000;stroke-width:0.2209;stroke-miterlimit:10; font-size:92px;">청</text>
<line class="st5" x1="44.02" y1="81.59" x2="44.02" y2="705.8"/>
<line class="st6" x1="131.21" y1="143.35" x2="131.21" y2="405.65"/>
<line class="st6" x1="234.72" y1="143.35" x2="234.72" y2="253.05"/>
<line class="st6" x1="335.47" y1="180" x2="335.47" y2="253.05"/>
<line class="st6" x1="433.33" y1="180" x2="433.33" y2="253.05"/>
<line class="st6" x1="449.65" y1="81.59" x2="449.65" y2="143.35"/>
<line class="st5" x1="534.08" y1="81.59" x2="534.08" y2="705.8"/>
<line class="st5" x1="43.54" y1="81.59" x2="534.68" y2="81.59"/>
<line class="st6" x1="449.53" y1="112.47" x2="534.68" y2="112.47"/>
<line class="st6" x1="43.54" y1="143.35" x2="534.68" y2="143.35"/>
<line class="st6" x1="131.09" y1="180" x2="534.68" y2="180"/>
<line class="st6" x1="131.09" y1="216.52" x2="534.68" y2="216.52"/>
<line class="st6" x1="43.54" y1="253.05" x2="534.68" y2="253.05"/>
<line class="st6" x1="43.54" y1="336.8" x2="534.68" y2="336.8"/>
<line class="st6" x1="43.54" y1="405.65" x2="534.68" y2="405.65"/>
<line class="st5" x1="43.54" y1="705.8" x2="534.68" y2="705.8"/>
<line class="st5" x1="534.08" y1="81.59" x2="534.08" y2="705.8"/>
<line class="st5" x1="44.02" y1="81.59" x2="44.02" y2="705.8"/>
<line class="st5" x1="43.54" y1="705.8" x2="534.68" y2="705.8"/>
<line class="st5" x1="43.54" y1="81.59" x2="534.68" y2="81.59"/>
<text transform="matrix(0.9982 0 0 1 42.5781 723.2246)"><tspan x="0" y="0" class="st1 st3">2</tspan><tspan x="6.84" y="0" class="st1 st3">3</tspan><tspan x="13.78" y="0" class="st1 st3">11</tspan><tspan x="27.47" y="0" class="st1 st3">4</tspan><tspan x="34.41" y="0" class="st1 st3">00</tspan><tspan x="48.1" y="0" class="st1 st3">2</tspan></text>
<text transform="matrix(0.9982 0 0 1 42.5781 740.8887)"><tspan x="0" y="0" class="st1 st3">2</tspan><tspan x="6.84" y="0" class="st1 st3">3</tspan><tspan x="13.78" y="0" class="st1 st3">.</tspan><tspan x="16.91" y="0" class="st1 st3">1</tspan><tspan x="23.86" y="0" class="st1 st3">2</tspan><tspan x="30.7" y="0" class="st1 st3">.</tspan><tspan x="33.94" y="0" class="st1 st3">1</tspan><tspan x="40.78" y="0" class="st1 st3">9</tspan><tspan x="47.72" y="0" class="st1 st3">.</tspan></text>
<text transform="matrix(0.9982 0 0 1 90.5532 740.8887)"><tspan x="0" y="0" class="st1 st3">승</tspan><tspan x="11.05" y="0" class="st1 st3">인</tspan><tspan x="22" y="0" class="st1 st3"> </tspan></text>
</svg>
